<?xml version="1.0" standalone="no"?>
<!DOCTYPE svg PUBLIC "-//W3C//DTD SVG 20010904//EN"
 "http://www.w3.org/TR/2001/REC-SVG-20010904/DTD/svg10.dtd">
<svg version="1.0" xmlns="http://www.w3.org/2000/svg"
 width="512.000000pt" height="512.000000pt" viewBox="0 0 512.000000 512.000000"
 preserveAspectRatio="xMidYMid meet">
<metadata>
Created by potrace 1.14, written by Peter Selinger 2001-2017
</metadata>
<g transform="translate(0.000000,512.000000) scale(0.100000,-0.100000)"
fill="#000000" stroke="none">
<path d="M0 4770 c0 -249 3 -350 11 -350 6 0 9 -7 5 -15 -3 -8 -1 -15 3 -15 5
0 11 5 13 12 3 7 33 14 78 16 65 4 72 3 67 -12 -4 -11 0 -19 11 -23 9 -4 20
-11 24 -17 5 -7 8 -4 8 7 0 20 39 24 59 5 6 -7 26 -14 44 -15 164 -12 177 -15
177 -35 -1 -35 -150 -112 -150 -78 0 6 -5 10 -12 10 -7 0 -38 18 -69 40 -32
22 -62 40 -67 40 -6 0 -12 4 -14 8 -4 10 -64 52 -73 52 -4 0 -2 -6 4 -14 15
-18 5 -40 -33 -75 l-26 -24 -25 23 -25 23 0 -122 c0 -127 5 -138 36 -78 16 29
17 30 30 12 8 -10 14 -27 14 -37 0 -10 6 -18 13 -18 6 0 3 -6 -8 -12 -11 -6
-29 -20 -39 -30 -11 -10 -26 -18 -33 -18 -7 0 -13 -8 -14 -17 -1 -10 -2 -35
-3 -56 -2 -21 1 -40 5 -42 4 -3 26 10 48 29 23 19 61 45 85 57 43 21 44 21 64
3 11 -11 28 -25 36 -32 20 -16 21 -42 1 -42 -8 0 -15 -6 -15 -14 0 -24 -28
-26 -44 -3 -14 20 -17 20 -28 6 -7 -9 -20 -19 -28 -22 -8 -4 -1 -5 15 -4 17 1
31 -2 32 -7 1 -5 7 -12 13 -16 9 -6 6 -10 -8 -14 -12 -4 -19 -13 -16 -20 3 -7
-2 -16 -11 -20 -9 -3 -13 -10 -10 -16 3 -5 2 -10 -4 -10 -5 0 -12 -14 -16 -31
-8 -37 -25 -45 -67 -30 -26 9 -35 9 -47 -4 -14 -14 -13 -15 15 -9 19 3 34 2
38 -5 4 -6 16 -11 28 -11 18 0 20 -4 13 -32 -4 -18 -11 -51 -15 -73 -9 -45
-41 -76 -70 -68 -12 3 -20 0 -20 -7 0 -9 11 -11 36 -7 28 5 35 3 30 -8 -2 -7
-8 -41 -12 -74 -3 -34 -10 -61 -15 -61 -5 0 -6 -7 -3 -15 4 -8 1 -15 -5 -15
-6 0 -11 5 -11 10 0 6 -4 10 -10 10 -15 0 -12 -36 4 -50 8 -6 13 -17 10 -23
-2 -7 -5 -44 -7 -82 l-2 -70 40 1 c22 1 83 2 135 3 95 1 96 1 98 27 3 35 52
136 52 107 0 -12 -4 -25 -10 -28 -16 -10 -12 -25 5 -19 9 4 15 19 15 37 0 29
1 29 18 14 23 -21 29 -21 29 -3 0 8 -11 17 -24 21 -12 3 -23 9 -23 13 0 4 22
31 48 60 35 38 56 52 75 52 17 0 27 5 27 15 0 9 9 15 23 14 21 0 21 -1 2 -9
-18 -8 -18 -9 -2 -9 10 -1 20 5 23 13 3 8 12 17 20 20 9 3 12 1 9 -4 -3 -6 -1
-10 4 -10 6 0 11 8 11 19 0 21 23 45 33 34 4 -3 7 0 8 8 1 8 5 3 9 -11 l8 -25
1 25 c1 18 11 31 36 44 19 11 38 17 41 14 3 -3 27 2 53 13 50 18 66 19 90 5 9
-6 12 -5 8 1 -8 13 26 23 43 13 8 -5 10 -18 6 -35 -4 -17 -3 -24 4 -20 5 3 10
19 10 35 l0 29 73 0 c39 1 89 3 110 5 42 5 49 -12 21 -52 -9 -13 -13 -26 -10
-29 3 -3 16 16 28 43 l22 49 7 -35 c5 -30 7 -31 8 -8 1 26 4 27 46 26 25 0 45
-5 45 -10 0 -5 13 -7 29 -3 24 5 29 2 35 -17 6 -22 7 -23 21 -4 8 11 18 17 22
13 3 -4 -1 -15 -9 -24 -9 -10 -18 -29 -22 -43 -4 -17 -1 -15 9 8 19 41 37 48
86 32 30 -10 39 -18 39 -36 0 -13 4 -25 9 -28 5 -4 7 3 4 14 -3 13 0 20 8 20
21 -1 52 -27 45 -39 -4 -5 -1 -13 4 -16 7 -4 -2 -19 -23 -38 -18 -18 -24 -24
-12 -14 12 9 25 14 28 10 4 -3 7 -2 7 4 0 17 31 25 46 12 8 -7 12 -22 9 -38
-3 -14 -3 -21 1 -14 7 15 34 5 34 -13 0 -8 3 -14 8 -14 13 0 54 -69 47 -79 -3
-6 5 -15 18 -20 26 -10 42 -47 23 -55 -6 -2 -1 -5 12 -6 12 -2 27 -3 34 -4 18
-2 21 -25 4 -32 -8 -3 -21 -2 -28 2 -19 12 -37 13 -43 4 -3 -5 -13 -6 -21 -3
-14 5 -12 8 7 19 23 12 22 13 -13 7 -30 -4 -41 -1 -62 20 -33 33 -33 71 -1
102 13 14 20 25 15 25 -4 0 -23 -18 -40 -40 -36 -45 -46 -47 -30 -6 5 15 6 25
1 22 -4 -3 -19 -38 -31 -78 -24 -76 -36 -98 -52 -98 -7 0 -7 5 0 13 6 7 13 25
16 40 2 15 7 31 10 36 4 5 1 13 -4 16 -8 5 -5 14 7 28 10 11 12 17 4 12 -10
-5 -12 -3 -8 11 3 11 9 30 12 44 l7 25 -21 -27 c-12 -15 -21 -30 -20 -35 4
-22 -2 -43 -12 -43 -6 0 -9 9 -6 20 3 11 1 20 -4 20 -5 0 -9 -15 -9 -34 0 -18
-7 -39 -15 -46 -14 -12 -16 -7 -12 38 2 28 10 58 17 67 7 8 9 15 6 15 -4 0 -2
9 4 21 10 19 10 20 -9 10 -45 -24 -94 -10 -120 34 -12 19 -12 19 -6 -2 4 -16
0 -25 -15 -33 -17 -9 -20 -8 -21 12 -1 13 -1 27 0 31 1 5 -2 6 -7 3 -5 -3 -7
-21 -6 -40 2 -20 -1 -38 -6 -41 -6 -4 -8 7 -6 24 2 17 -1 31 -7 31 -6 0 -7 3
-4 7 9 9 -12 33 -29 33 -8 0 -17 -12 -20 -26 -4 -17 -11 -23 -22 -19 -11 4
-12 2 -4 -8 8 -10 5 -13 -15 -15 -15 -1 -32 6 -40 15 -14 17 -14 17 -9 1 3
-12 0 -18 -9 -18 -8 0 -15 5 -15 11 0 7 -11 9 -28 6 -58 -12 -95 30 -128 142
-3 8 -7 12 -9 9 -15 -14 43 -136 67 -144 24 -7 23 -21 -3 -34 -12 -7 -19 -19
-17 -32 2 -14 -4 -23 -19 -29 -25 -9 -28 -3 -14 34 10 26 -1 58 -13 38 -4 -6
-4 -16 0 -23 5 -7 0 -9 -14 -6 -20 6 -20 4 -6 -16 13 -21 12 -24 -12 -35 -26
-12 -26 -11 -22 26 3 28 -1 43 -15 58 -19 20 -19 20 -10 0 6 -11 8 -40 5 -64
-4 -43 -5 -44 -17 -20 -8 13 -11 38 -9 54 4 27 3 28 -5 8 -14 -31 -23 -29 -45
12 -11 19 -23 35 -28 35 -14 0 -9 -15 13 -34 16 -14 20 -25 15 -48 -3 -17 -6
-39 -6 -49 0 -11 -4 -19 -9 -19 -4 0 -8 15 -8 33 1 27 -2 32 -20 31 -12 0 -20
3 -17 7 2 4 0 10 -5 13 -11 7 -25 -40 -22 -74 4 -38 -9 -18 -24 37 -7 26 -14
42 -14 35 -1 -7 -5 -10 -11 -7 -16 10 -12 -7 7 -27 9 -10 11 -18 5 -18 -7 0
-8 -10 -2 -30 7 -26 6 -30 -10 -30 -19 0 -46 35 -32 42 4 2 4 19 1 38 l-6 35
-2 -37 c-1 -40 -8 -46 -30 -25 -11 10 -13 9 -8 -4 3 -9 0 -23 -6 -30 -10 -11
-9 -11 4 -1 13 10 19 9 28 -2 16 -19 3 -26 -43 -24 -26 1 -36 6 -35 17 0 11 2
12 6 3 10 -25 22 -1 17 36 -4 28 -3 33 5 22 6 -8 11 -10 11 -5 -1 17 -27 45
-43 45 -8 0 -17 6 -20 13 -3 7 -9 2 -15 -13 -9 -22 -11 -22 -12 -5 -1 19 -2
19 -10 -2 -5 -12 -20 -25 -34 -29 -24 -6 -42 -42 -37 -73 1 -7 -2 -10 -8 -6
-13 8 -14 3 -2 -28 9 -22 7 -26 -14 -31 -13 -3 -27 -15 -30 -26 -6 -17 -15
-20 -74 -20 -37 0 -72 -5 -78 -11 -8 -8 -13 -8 -17 0 -11 18 -64 13 -75 -6
-10 -17 -10 -17 -11 0 0 22 -9 22 -27 0 -14 -17 -14 -17 -9 0 6 20 -14 23 -33
5 -11 -10 -13 -10 -7 0 4 6 2 12 -4 12 -7 0 -10 -118 -10 -391 1 -343 4 -431
14 -363 2 10 8 20 15 22 9 3 8 -3 -1 -25 -6 -15 -16 -34 -21 -40 -6 -9 -5 -13
2 -13 6 0 11 5 11 11 0 5 5 7 12 3 6 -4 8 -3 4 4 -3 6 7 24 24 40 27 28 28 30
7 25 -19 -4 -18 -1 11 26 18 17 41 31 53 31 18 0 17 -2 -8 -25 -15 -13 -22
-25 -15 -25 7 0 15 7 18 15 4 8 9 13 14 10 4 -2 12 6 18 19 10 24 62 42 62 23
0 -6 6 -3 13 5 11 16 122 58 158 61 10 1 28 14 41 30 57 73 134 149 162 161
82 37 157 63 153 53 -17 -41 -15 -46 4 -12 12 22 26 42 30 43 5 2 9 8 9 13 0
4 -8 5 -18 2 -15 -6 -15 -5 -3 11 11 13 16 14 22 5 5 -9 18 -3 44 19 20 18 40
30 46 27 5 -4 9 -1 9 4 0 6 8 11 19 11 20 0 31 -25 31 -72 0 -16 4 -28 9 -28
18 0 21 -33 4 -45 -10 -8 -15 -17 -10 -21 4 -4 7 -2 7 4 0 18 30 2 31 -17 1
-9 4 -6 9 9 5 17 8 19 9 8 1 -10 5 -18 11 -18 5 0 7 7 4 15 -4 8 -1 15 5 15 6
0 11 5 11 11 0 5 -4 7 -10 4 -5 -3 -18 -1 -27 4 -17 10 -16 11 5 17 27 8 28
21 5 47 -13 15 -15 21 -5 24 20 7 14 25 -7 18 -27 -8 -36 32 -10 46 11 5 24 7
29 4 6 -4 7 1 3 12 -3 10 -2 15 2 10 5 -4 20 4 34 17 22 21 32 24 61 17 19 -4
83 -6 142 -6 95 1 106 0 95 -14 -10 -12 -9 -13 3 -6 26 14 60 48 55 55 -2 4 1
7 8 8 7 1 29 5 49 8 50 8 88 -2 88 -23 0 -15 1 -15 13 -1 6 9 26 18 42 22 17
3 57 11 90 19 33 8 62 10 63 5 5 -12 33 -10 102 8 45 11 65 13 73 5 8 -8 8
-11 0 -11 -7 0 -21 -15 -33 -32 -13 -19 8 -3 45 35 63 65 68 68 108 65 40 -3
42 -5 40 -33 -2 -25 -1 -27 7 -10 7 17 9 18 9 3 1 -14 10 -18 37 -18 33 0 35
2 32 28 -3 24 -7 27 -36 25 -25 -1 -30 2 -22 11 5 7 6 16 2 20 -4 4 -2 6 3 5
6 -2 26 11 45 29 19 18 38 32 42 32 5 0 27 9 51 19 72 32 137 54 144 48 3 -4
14 -2 25 4 17 9 19 7 16 -28 -3 -37 -2 -38 35 -41 34 -3 37 -1 37 22 0 19 6
26 20 27 11 1 26 2 33 3 6 0 13 15 15 33 2 25 -2 34 -20 44 -12 7 -31 23 -41
36 -18 22 -21 23 -36 8 -10 -8 -21 -12 -24 -9 -8 9 347 356 420 410 31 23 74
47 97 54 22 7 51 16 64 21 31 12 55 11 47 -1 -3 -5 -2 -10 4 -10 5 0 11 5 13
11 2 6 25 12 51 13 40 1 46 4 41 19 -3 9 -1 17 4 17 5 0 12 -8 14 -18 4 -13
23 -21 80 -30 41 -7 81 -18 88 -25 8 -7 -4 8 -25 33 l-40 45 55 3 c53 3 56 2
88 -35 18 -21 40 -49 48 -63 16 -25 154 -127 154 -114 0 12 -84 134 -92 134
-9 0 -98 90 -98 99 0 3 13 12 30 19 16 8 28 19 27 25 -3 18 52 21 59 3 9 -24
62 -31 84 -11 15 13 23 14 40 5 28 -15 127 -31 147 -23 13 5 12 8 -8 16 -13 6
-28 9 -34 8 -23 -6 -75 11 -69 21 4 6 3 8 -4 4 -6 -3 -18 1 -26 10 -15 14 -17
14 -22 0 -7 -17 -34 -22 -34 -6 0 5 -8 7 -17 3 -10 -3 -15 -3 -11 2 11 11 -39
55 -63 55 -11 0 -19 -7 -19 -17 0 -13 3 -14 12 -5 7 7 16 12 21 12 5 0 2 -7
-6 -15 -8 -8 -33 -16 -55 -17 -22 -2 -38 -6 -35 -10 10 -18 -18 -6 -43 17 -15
14 -30 26 -33 26 -33 7 -60 5 -79 -7 -34 -22 -57 -9 -81 46 -24 56 -26 71 -9
88 9 9 8 12 -5 12 -9 0 -17 -4 -17 -8 0 -5 -11 -14 -24 -20 -21 -9 -27 -7 -48
21 -33 44 -91 111 -104 119 -6 4 -9 20 -6 35 l5 27 -32 -27 c-37 -30 -72 -35
-95 -11 -14 14 -18 13 -42 -13 -15 -15 -21 -20 -14 -10 10 13 10 20 0 32 -7 8
-16 15 -21 15 -4 0 -20 5 -36 11 -15 6 -28 9 -28 7 0 -1 -15 7 -32 20 -18 13
-33 28 -33 33 0 7 64 9 182 7 l183 -3 40 -37 c22 -21 48 -40 58 -44 9 -3 17
-10 17 -15 0 -5 18 -16 40 -25 22 -9 40 -22 40 -29 0 -14 22 -25 49 -25 22 0
55 -35 47 -48 -9 -15 43 -44 100 -58 47 -11 53 -10 68 7 18 21 40 26 33 7 -2
-7 -11 -12 -18 -10 -8 1 -5 -4 5 -13 11 -8 25 -15 30 -15 6 0 4 5 -4 10 -10 7
-11 10 -2 11 6 1 17 3 22 4 6 1 13 3 18 4 12 2 -49 31 -67 31 -10 0 -27 9 -39
20 -12 12 -22 17 -22 12 0 -5 7 -15 15 -22 8 -7 12 -16 10 -21 -3 -4 -28 15
-56 44 -33 34 -53 47 -56 39 -5 -12 -49 29 -106 97 -10 12 -21 19 -26 17 -5
-3 -20 5 -34 18 -13 13 -33 27 -43 32 -15 6 -9 9 26 12 43 3 60 -6 73 -42 2
-6 8 -8 12 -3 5 4 3 13 -3 19 -7 7 -12 16 -12 20 0 4 405 8 900 8 l900 0 -1
-1185 c0 -673 -4 -1185 -9 -1185 -5 0 -11 15 -13 33 l-4 32 -1 -30 c-2 -24 -9
-34 -34 -44 -48 -21 -72 -19 -76 4 -5 25 -31 55 -48 55 -7 0 -15 12 -17 28
l-4 27 -2 -29 c-1 -21 -5 -27 -17 -22 -8 3 -12 2 -9 -4 9 -14 -9 -12 -23 2 -7
7 -12 8 -12 4 0 -5 -8 -2 -17 5 -10 7 -6 0 10 -17 30 -33 27 -44 -13 -44 -14
0 -31 -5 -37 -11 -7 -7 -19 -3 -41 15 -36 31 -66 33 -111 5 -29 -17 -32 -24
-27 -49 3 -16 1 -32 -4 -35 -5 -3 -7 -13 -4 -23 4 -12 3 -13 -3 -4 -7 9 -17 1
-36 -29 -15 -22 -27 -45 -27 -50 0 -5 -11 -26 -24 -47 -31 -48 -44 -87 -25
-78 9 5 9 3 -1 -6 -9 -7 -14 -25 -12 -42 2 -17 0 -26 -7 -22 -6 4 -8 -2 -6
-14 2 -11 0 -20 -6 -20 -5 0 -9 -7 -9 -15 0 -8 4 -15 9 -15 12 0 23 29 15 41
-3 5 1 9 9 9 8 0 17 -10 20 -22 7 -24 -9 -61 -22 -53 -5 2 -14 -2 -21 -10 -7
-8 -16 -13 -20 -10 -5 3 -12 0 -16 -6 -4 -8 -3 -9 4 -5 8 5 12 0 12 -13 0 -22
-14 -28 -25 -11 -3 6 -11 10 -17 10 -6 0 -2 -8 9 -18 20 -17 24 -56 8 -81 -3
-6 -2 -11 2 -11 5 0 7 -26 5 -57 -3 -41 -11 -66 -29 -90 -14 -19 -23 -36 -19
-40 3 -3 6 -1 6 6 0 7 37 49 82 94 46 45 82 86 80 90 -1 5 2 5 8 2 7 -4 21 2
33 13 12 10 47 32 77 48 30 15 67 37 83 47 15 10 27 15 27 11 0 -4 15 7 34 25
26 25 34 29 33 15 -2 -13 7 -19 37 -22 25 -2 36 0 32 7 -8 12 41 27 52 17 3
-4 -4 -9 -16 -13 -26 -6 -28 -18 -6 -31 13 -7 13 -11 -5 -33 -18 -21 -20 -21
-15 -4 5 20 5 20 -10 1 -8 -10 -13 -22 -11 -27 3 -4 -4 -5 -15 -2 -29 8 -51
-3 -44 -22 4 -9 13 -14 22 -10 12 4 13 3 2 -10 -7 -8 -9 -15 -4 -15 5 0 2 -5
-6 -10 -13 -8 -12 -10 3 -10 11 0 17 -5 14 -12 -2 -7 -12 -12 -21 -10 -10 2
-24 -5 -31 -15 -7 -10 -19 -18 -27 -18 -7 -1 -12 -6 -11 -12 3 -16 -67 -73
-90 -73 -24 0 -17 24 9 28 24 5 64 41 64 59 0 7 5 13 10 13 6 0 9 12 6 28 -2
15 -5 30 -5 33 -1 3 -7 6 -13 7 -7 0 -26 3 -42 5 -21 3 -36 -2 -51 -17 -12
-11 -33 -27 -48 -35 -24 -13 -26 -16 -12 -31 8 -9 15 -22 15 -28 0 -7 5 -12
11 -12 6 0 9 -14 7 -33 -3 -30 -1 -32 30 -35 19 -2 51 5 76 17 46 23 60 26 52
12 -3 -5 1 -12 9 -15 13 -5 14 -2 5 15 -7 13 -8 25 -2 32 5 7 12 24 16 39 3
16 11 28 17 28 6 0 7 -5 3 -12 -8 -13 57 31 67 45 6 8 32 5 113 -10 17 -3 26
-1 22 5 -3 5 1 15 9 22 12 10 12 15 -3 38 -22 35 -43 51 -59 45 -7 -3 -13 2
-13 11 0 18 2 19 53 7 20 -5 39 -5 42 -1 3 5 -7 11 -22 13 -27 5 -27 5 2 3 21
-1 30 -6 29 -18 -1 -10 4 -14 12 -11 10 3 14 -3 14 -21 0 -20 -4 -24 -17 -20
-17 5 -16 4 0 -9 18 -15 21 -72 17 -249 0 -13 -8 -18 -29 -18 -17 0 -33 -5
-36 -11 -5 -7 5 -8 29 -4 l36 7 1 -46 c2 -57 2 -63 0 -131 l-1 -54 -39 14
c-22 7 -50 19 -62 25 -12 7 -47 13 -78 15 -92 5 -226 21 -239 29 -19 12 -138
28 -218 30 -52 1 -76 7 -88 19 -10 9 -24 17 -32 17 -8 0 -14 5 -14 11 0 8 -14
10 -47 4 -88 -13 -440 1 -462 19 -12 9 -12 8 -1 -11 11 -18 12 -24 1 -37 -15
-18 -47 -21 -56 -6 -10 17 -51 11 -78 -10 -30 -24 -64 -26 -86 -6 -23 21 -212
26 -235 7 -20 -16 -66 -7 -66 14 0 20 -43 19 -97 -1 -34 -13 -49 -14 -68 -6
-18 8 -26 8 -35 -4 -17 -20 -32 -18 -73 10 -48 33 -77 41 -77 22 0 -31 -28
-45 -96 -44 -52 0 -70 4 -82 19 -18 21 -86 27 -98 8 -3 -6 -22 -9 -43 -7 -20
3 -44 0 -53 -6 -13 -8 -27 -7 -49 1 -18 7 -35 10 -40 8 -7 -5 -94 15 -130 30
-10 3 -20 2 -24 -4 -8 -14 -82 -14 -90 -1 -4 7 -14 5 -28 -5 -28 -19 -77 -19
-105 0 -16 12 -27 13 -40 6 -10 -6 -28 -8 -39 -5 -11 3 -35 -2 -52 -11 -27
-13 -38 -14 -67 -5 -37 12 -43 30 -19 50 22 18 15 49 -16 73 -25 18 -28 18
-53 2 -33 -22 -33 -28 3 -64 16 -16 26 -32 23 -35 -11 -12 -70 -6 -81 8 -6 7
-26 16 -43 20 -24 5 -34 2 -45 -14 -10 -14 -21 -19 -33 -15 -10 3 -21 2 -24
-4 -8 -12 -97 -11 -113 2 -7 5 -13 18 -13 28 0 16 -8 19 -57 18 -32 -1 -69 -6
-83 -11 -14 -5 -74 -11 -135 -13 -60 -2 -137 -9 -170 -16 -33 -7 -96 -13 -140
-14 -143 -5 -259 -14 -293 -24 -19 -6 -46 -8 -62 -5 -15 4 -37 1 -50 -6 -12
-6 -47 -13 -78 -16 -62 -4 -84 -7 -247 -29 -174 -23 -169 -21 -173 -90 -2 -47
-1 -56 10 -48 8 6 76 9 172 8 148 -2 162 0 207 22 27 12 56 23 65 23 15 0 15
-2 1 -23 l-15 -23 107 1 c68 1 115 7 131 15 35 19 48 20 54 4 7 -17 43 -18 74
0 18 10 35 10 68 3 37 -9 47 -8 63 8 15 13 27 15 48 10 49 -14 97 -14 113 -1
33 28 43 30 38 8 -5 -17 -1 -23 15 -27 37 -8 103 -1 120 13 9 8 16 9 19 3 1
-6 23 -12 48 -15 25 -2 50 -5 55 -7 6 -1 23 3 38 9 19 8 34 9 47 2 10 -5 37
-10 59 -10 33 0 43 5 61 30 24 34 47 42 30 11 -13 -25 -13 -27 3 -29 6 -1 41
-7 76 -13 46 -8 71 -8 88 0 12 6 23 7 23 3 0 -11 151 -12 172 -1 12 6 18 6 18
-1 0 -22 49 -9 69 18 16 21 20 23 21 10 0 -10 8 -18 18 -19 31 -1 186 -1 212
1 69 3 141 -1 165 -10 19 -7 31 -7 40 0 6 5 14 8 16 5 14 -14 227 -26 235 -13
3 5 11 5 18 -1 7 -6 39 -9 72 -7 45 2 60 7 62 19 4 21 16 22 31 3 15 -18 57
-26 70 -13 5 5 15 6 21 2 19 -12 184 -5 191 7 4 6 11 8 17 4 5 -3 58 -9 116
-12 79 -5 106 -3 106 5 0 7 5 9 10 6 6 -4 59 -6 118 -5 59 1 120 1 135 0 24 0
28 3 22 20 -8 24 1 25 40 4 20 -11 60 -17 118 -19 84 -3 87 -2 81 18 -5 17 -3
19 12 13 30 -12 103 -24 186 -30 32 -3 62 -8 68 -11 6 -4 17 -1 25 5 8 6 19 9
25 5 6 -4 18 -1 26 6 12 10 13 9 8 -5 -4 -11 -1 -16 11 -16 10 0 14 5 9 13 -6
9 -4 9 7 -1 7 -6 24 -12 36 -12 20 0 22 3 14 19 -15 28 -2 32 29 9 23 -17 44
-21 122 -22 51 -1 98 -5 105 -9 6 -4 22 -3 34 2 15 5 44 3 76 -4 32 -8 55 -9
61 -3 6 6 24 6 48 -1 55 -15 77 -14 70 4 -6 16 15 21 28 7 4 -4 22 -7 39 -7
17 0 32 -6 34 -12 6 -17 -59 -27 -139 -20 -62 5 -69 4 -63 -10 5 -14 3 -14
-14 1 -11 10 -27 16 -34 13 -8 -3 -25 2 -37 10 -17 12 -24 13 -30 3 -6 -9 -21
-11 -54 -6 -25 4 -52 4 -58 -1 -7 -4 -42 -6 -77 -4 -56 2 -63 1 -57 -14 3 -9
6 -24 6 -34 0 -14 12 -17 73 -18 39 0 107 -6 150 -13 77 -11 137 -7 137 10 0
13 57 -19 64 -36 5 -13 8 -13 28 0 17 11 33 13 61 6 73 -16 63 -34 -18 -31
-49 1 -55 -1 -55 -18 0 -32 -17 -33 -30 -1 -11 28 -16 30 -64 30 -145 1 -446
13 -633 25 -61 4 -62 4 -65 -23 -4 -35 -41 -39 -46 -5 -2 13 -9 23 -15 24 -7
1 -63 3 -124 4 l-113 3 0 -29 c0 -33 -11 -37 -31 -11 -12 16 -25 18 -96 14
-72 -4 -83 -7 -83 -22 0 -30 -19 -33 -31 -7 -10 22 -19 26 -83 31 -100 9 -182
1 -201 -18 -20 -20 -31 -20 -39 -1 -8 21 -131 21 -140 0 -8 -22 -43 -18 -49 6
-5 20 -11 20 -219 19 -258 -3 -288 -6 -288 -31 0 -25 -27 -24 -35 1 -8 26 -42
34 -110 25 -50 -6 -55 -9 -55 -31 0 -31 -17 -31 -32 0 -9 20 -21 26 -65 32
-52 6 -67 3 -69 -17 -1 -5 -2 -13 -3 -19 -2 -17 -31 -11 -38 8 -11 29 -24 32
-140 32 -102 0 -113 -2 -123 -20 -14 -26 -37 -26 -45 0 -5 17 -15 20 -61 20
-43 0 -56 -4 -66 -20 -16 -26 -44 -26 -51 0 -4 17 -14 20 -56 20 -39 0 -51 -4
-51 -15 0 -26 -30 -30 -46 -6 -10 13 -26 21 -44 21 -24 0 -29 -5 -32 -28 -4
-37 -42 -39 -46 -2 -2 14 -11 31 -20 37 -9 7 -11 13 -5 13 6 0 14 17 18 38 4
20 14 45 22 54 14 16 10 17 -68 13 -46 -2 -97 -4 -112 -4 -22 -1 -31 -8 -42
-33 -12 -27 -14 -29 -15 -11 0 12 4 25 10 28 20 13 10 26 -12 14 -13 -7 -44
-9 -80 -6 -51 5 -60 3 -74 -16 l-16 -22 7 23 c7 23 6 23 -77 21 -46 -1 -89 -6
-95 -11 -9 -7 -13 -7 -13 1 0 7 -21 9 -62 6 -100 -7 -641 -27 -698 -25 -35 1
-46 0 -65 -4 -11 -2 -28 -5 -37 -5 -14 -1 -18 -10 -18 -41 0 -37 2 -39 22 -31
13 4 38 8 56 7 29 -1 32 2 33 29 2 28 2 28 6 4 4 -24 7 -26 59 -25 31 1 58 -3
61 -7 2 -4 14 -5 26 -1 12 4 35 7 50 6 20 0 30 5 36 20 l8 22 5 -22 c4 -14 14
-22 27 -22 12 0 21 -5 21 -11 0 -8 4 -8 12 -1 16 13 188 25 188 14 0 -5 14 -7
31 -4 21 3 34 -1 43 -13 12 -16 14 -16 45 0 32 16 86 21 261 25 41 1 80 1 85
0 6 -1 43 -1 83 0 49 1 72 -2 72 -10 0 -7 8 -9 20 -5 32 10 123 15 145 8 18
-6 16 -8 -10 -14 -16 -4 -51 -7 -76 -8 -41 -1 -48 -4 -53 -26 -8 -32 -24 -32
-36 0 -8 21 -16 25 -52 25 -24 1 -77 2 -118 3 -71 2 -75 1 -78 -20 -4 -30 -18
-29 -38 2 -23 35 -61 34 -75 -3 l-11 -27 -18 22 c-16 20 -24 22 -64 17 -25 -4
-51 -13 -57 -20 -13 -15 -39 -8 -39 12 0 8 -9 14 -20 14 -15 0 -20 -7 -20 -25
0 -31 -16 -33 -26 -2 -4 12 -11 25 -17 28 -15 10 -152 0 -155 -11 -5 -15 -23
-12 -37 6 -14 20 -55 11 -55 -12 0 -21 -31 -30 -44 -13 -16 20 -36 22 -42 4
-8 -19 -24 -19 -24 0 0 18 -37 20 -43 3 -3 -10 -7 -10 -20 1 -14 11 -21 11
-42 -3 -14 -9 -25 -13 -25 -8 0 5 -22 9 -50 10 l-50 1 0 -375 0 -374 2560 0
2561 0 -2 2560 -3 2560 -2558 0 -2558 0 0 -350z m348 -366 c4 -4 -1 -4 -10 -1
-9 3 -18 1 -20 -4 -2 -6 -15 -4 -33 6 l-30 16 43 -5 c24 -2 47 -8 50 -12z
m148 -17 c6 2 17 -3 24 -12 8 -9 8 -15 2 -15 -6 0 -14 5 -17 10 -4 6 -11 8
-16 4 -11 -7 -49 23 -49 39 0 6 10 1 23 -10 12 -11 27 -19 33 -16z m290 22
c24 -20 16 -37 -17 -35 -18 1 -34 -4 -39 -13 -5 -9 -10 -11 -10 -5 0 14 -40
26 -40 12 0 -5 -4 -7 -10 -3 -5 3 -7 13 -4 23 2 9 -1 7 -7 -6 -15 -28 -64 -27
-97 2 -15 14 -34 20 -54 17 -18 -1 -28 1 -24 7 9 15 284 16 302 1z m193 1 c13
-8 14 -9 1 -10 -9 0 -11 -3 -5 -8 6 -4 15 -16 21 -26 6 -11 17 -22 25 -25 9
-3 8 2 -4 14 -10 9 -15 20 -11 24 4 3 9 0 11 -6 5 -14 33 -18 33 -5 0 16 -18
34 -28 28 -6 -3 -13 -2 -16 3 -3 5 1 12 10 15 26 10 124 7 146 -5 14 -8 23 -8
31 0 7 7 62 11 147 11 74 0 129 -4 122 -8 -9 -6 -7 -14 9 -30 11 -12 24 -20
28 -18 4 3 14 -6 21 -19 9 -17 33 -32 72 -47 33 -11 64 -29 71 -38 7 -9 18
-20 26 -24 10 -7 12 -3 7 15 -4 19 -3 18 6 -3 7 -16 19 -28 29 -28 9 0 22 -7
29 -15 7 -8 17 -15 22 -15 13 0 68 -42 68 -52 0 -11 -29 -5 -59 11 -13 7 -48
13 -77 12 -44 0 -54 3 -54 16 0 13 -3 14 -12 5 -14 -14 -42 -16 -33 -2 3 6 4
10 1 10 -2 0 -12 3 -22 7 -11 4 -15 3 -11 -4 14 -23 -56 12 -79 40 -13 15 -25
27 -26 27 -10 -4 -58 22 -58 31 0 6 -7 9 -15 5 -8 -3 -15 -1 -15 4 0 6 -7 10
-16 10 -11 0 -14 6 -9 20 5 15 3 18 -9 14 -12 -4 -15 -2 -10 9 3 8 0 18 -7 23
-8 4 -10 3 -5 -4 4 -7 1 -12 -8 -12 -8 0 -17 -4 -20 -9 -3 -5 1 -8 10 -7 9 0
21 -8 28 -18 18 -32 45 -56 58 -54 7 2 14 -7 16 -19 2 -16 -2 -23 -12 -23 -9
0 -16 4 -16 8 0 5 -17 16 -37 26 -28 13 -33 20 -23 26 20 12 7 22 -32 26 -22
3 -28 1 -19 -5 8 -5 20 -7 28 -4 18 7 16 -7 -4 -29 -15 -17 -15 -18 3 -18 26
-1 70 -35 56 -44 -7 -4 -20 -2 -30 3 -11 6 -22 7 -26 4 -3 -3 -6 -1 -6 5 0 7
-5 12 -11 12 -5 0 -7 -4 -4 -10 4 -6 -5 -10 -19 -10 -14 0 -26 6 -26 13 0 8
-4 7 -10 -3 -8 -12 -12 -13 -19 -2 -11 18 -22 17 -33 -2 -10 -18 -38 -22 -38
-5 0 8 -4 8 -13 1 -8 -7 -18 -7 -27 -2 -8 5 -21 5 -29 1 -20 -9 -62 -8 -78 2
-8 5 -13 3 -14 -5 0 -8 -2 -9 -5 -2 -3 6 -15 9 -27 7 -22 -4 -127 51 -127 66
0 4 -14 15 -32 25 -31 19 -31 19 -24 0 18 -43 17 -52 -11 -78 -15 -14 -33 -26
-40 -26 -7 0 -13 -4 -13 -10 0 -18 -16 -11 -66 33 -28 23 -67 56 -88 72 l-36
31 132 2 c207 4 222 5 236 19 11 10 7 12 -19 6 -23 -4 -30 -3 -25 5 4 8 2 10
-7 6 -9 -3 -16 3 -19 18 -4 23 -2 23 75 25 44 1 87 -2 96 -7z m813 -1 c24 -6
56 -20 71 -31 20 -14 28 -16 26 -7 -1 8 1 22 5 32 7 15 24 17 137 17 120 0
129 -1 143 -22 9 -12 19 -18 23 -14 5 5 2 11 -4 13 -7 3 -13 9 -13 14 0 5 46
9 103 9 101 0 103 -1 155 -35 28 -20 52 -32 52 -28 0 5 9 -7 20 -24 11 -18 27
-33 35 -33 8 0 30 -14 47 -31 29 -27 31 -32 17 -42 -9 -7 -22 -25 -30 -41 -8
-16 -25 -36 -39 -45 -14 -8 -22 -11 -17 -6 9 10 -22 47 -34 39 -5 -3 -13 6
-19 20 -10 28 -24 33 -36 14 -5 -7 -10 -4 -15 10 -5 12 -16 23 -26 23 -10 1
-24 2 -32 3 -8 0 -16 12 -18 26 -2 19 -1 22 7 10 6 -10 10 -11 10 -2 0 15 -40
56 -47 48 -9 -9 -34 15 -27 25 3 5 -6 9 -20 9 -14 0 -28 -5 -32 -12 -5 -8 -2
-9 9 -5 13 5 17 1 17 -16 0 -12 9 -28 21 -35 16 -10 20 -21 17 -43 -4 -27 0
-33 33 -50 21 -10 42 -18 46 -17 13 2 43 -14 43 -23 0 -14 36 -46 60 -54 22
-7 21 -8 -11 -41 -28 -29 -98 -66 -85 -45 3 5 -6 9 -20 9 -15 0 -30 6 -35 13
-4 8 -12 14 -16 14 -5 0 -25 16 -45 36 -20 21 -39 34 -42 31 -3 -3 -6 6 -7 19
0 13 -3 18 -6 12 -3 -9 -10 -10 -22 -3 -10 5 -22 6 -26 2 -5 -4 -5 -1 -1 6 4
6 4 18 0 24 -5 7 -8 24 -8 38 -1 19 -8 27 -31 35 -17 5 -41 20 -54 32 -13 12
-30 19 -38 16 -11 -4 -13 0 -8 19 6 23 3 26 -29 32 -20 4 -41 4 -46 1 -6 -3
-10 -1 -10 4 0 6 -9 11 -21 11 -21 0 -21 0 2 -21 l24 -21 -22 5 c-13 3 -23 1
-23 -4 0 -5 9 -9 20 -9 11 0 19 -5 18 -11 -2 -6 3 -14 11 -17 10 -3 11 0 5 9
-7 12 -5 12 9 0 9 -7 14 -17 11 -22 -8 -13 47 -61 63 -55 8 3 17 -2 20 -12 9
-23 25 -33 45 -26 11 3 21 -3 29 -18 23 -45 40 -58 60 -47 15 7 19 6 19 -6 0
-8 8 -15 19 -15 22 0 45 -25 36 -40 -3 -5 -13 -10 -22 -10 -9 0 -13 -3 -10 -7
4 -3 -1 -12 -11 -19 -15 -11 -15 -13 10 -19 16 -4 34 -5 42 -2 8 3 16 1 18 -4
2 -5 22 -11 46 -12 23 0 42 -4 42 -6 0 -3 -23 -29 -52 -58 -75 -76 -101 -71
-187 32 -9 11 -35 37 -59 58 -44 38 -46 45 -9 25 29 -16 67 -17 67 -1 0 26
-20 63 -34 63 -8 0 -19 6 -23 14 -9 15 -50 39 -73 43 -8 1 -24 3 -35 5 -11 2
-23 7 -26 11 -4 5 -24 10 -45 11 -21 2 -40 9 -42 16 -3 8 0 10 8 5 9 -6 11 -4
6 4 -5 7 -15 10 -24 6 -9 -3 -13 -3 -9 1 10 11 -13 34 -34 34 -11 0 -16 5 -13
14 6 16 -46 29 -61 15 -16 -16 -25 -10 -25 16 0 14 -4 25 -9 25 -5 0 -11 10
-13 22 -2 14 -11 24 -23 26 -11 2 -29 8 -40 13 -12 6 -27 11 -35 12 -8 2 -21
7 -29 11 -10 7 -12 6 -6 -4 6 -10 4 -12 -9 -7 -14 6 -15 3 -6 -13 16 -29 -2
-24 -34 9 l-28 29 136 1 c76 1 155 -3 178 -10z m743 0 c4 -6 13 -8 21 -5 8 3
14 -1 14 -9 0 -8 -4 -15 -9 -15 -5 0 -7 -9 -4 -21 4 -13 11 -18 21 -14 8 3 22
0 31 -7 13 -10 14 -10 4 2 -17 19 -16 30 2 30 17 0 20 16 5 25 -21 13 3 25 46
23 35 -1 44 -5 44 -20 0 -10 6 -18 13 -19 6 0 2 -5 -10 -11 -13 -6 -23 -15
-23 -20 0 -5 5 -6 11 -3 12 8 44 -32 44 -55 1 -26 -18 -30 -34 -7 -9 12 -15
25 -13 30 3 11 -13 8 -27 -5 -10 -9 -12 -9 -7 -1 4 8 -1 11 -14 10 -11 -1 -20
-7 -20 -15 0 -10 -4 -10 -16 2 -21 21 -30 20 -13 -1 9 -11 3 -9 -15 5 -16 12
-35 22 -42 22 -8 0 -11 6 -8 15 4 8 1 15 -4 15 -6 0 -17 6 -24 13 -7 6 -29 20
-48 29 l-35 17 52 0 c28 1 55 -4 58 -10z m-2125 -13 c-7 -7 -13 -7 -20 0 -6 6
-3 10 10 10 13 0 16 -4 10 -10z m150 -28 c0 -6 -6 -5 -15 2 -8 7 -15 14 -15
16 0 2 7 1 15 -2 8 -4 15 -11 15 -16z m1420 -28 c0 -5 -4 -10 -9 -10 -6 0 -13
5 -16 10 -3 6 1 10 9 10 9 0 16 -4 16 -10z m830 -20 c0 -5 -5 -10 -11 -10 -5
0 -7 5 -4 10 3 6 8 10 11 10 2 0 4 -4 4 -10z m-2610 -55 c5 -14 15 -25 22 -25
7 0 27 -11 43 -25 l30 -25 -25 -20 c-52 -42 -91 -31 -136 38 -15 23 -14 26 12
53 34 35 42 36 54 4z m1865 -23 c-3 -3 -11 0 -18 7 -9 10 -8 11 6 5 10 -3 15
-9 12 -12z m695 8 c0 -5 -8 -10 -17 -10 -15 0 -16 2 -3 10 19 12 20 12 20 0z
m-1302 -16 c13 8 39 -2 45 -18 4 -11 -2 -11 -31 -1 -20 7 -38 19 -40 26 -3 12
-2 11 6 0 5 -7 14 -11 20 -7z m642 6 c0 -5 -5 -10 -11 -10 -5 0 -7 5 -4 10 3
6 8 10 11 10 2 0 4 -4 4 -10z m710 0 c0 -5 -7 -10 -16 -10 -8 0 -12 5 -9 10 3
6 10 10 16 10 5 0 9 -4 9 -10z m42 -4 c7 4 8 2 4 -5 -9 -13 -26 -5 -25 12 0 9
2 8 6 -1 2 -6 10 -9 15 -6z m-2289 -42 c20 -23 37 -44 37 -47 0 -3 -13 -9 -28
-15 -29 -10 -69 4 -100 34 -7 8 -18 14 -24 14 -6 0 -6 6 2 15 7 8 18 15 25 15
7 0 18 7 25 15 16 20 19 19 63 -31z m287 7 c0 -4 -8 -7 -17 -8 -10 -1 -29 -4
-42 -9 -23 -7 -23 -7 -6 19 14 23 20 24 41 15 13 -6 24 -14 24 -17z m2610 -6
c14 -26 9 -42 -9 -31 -6 4 -8 13 -4 21 3 8 0 15 -6 15 -6 0 -11 5 -11 10 0 18
17 10 30 -15z m-45 -15 c3 -5 1 -10 -4 -10 -6 0 -11 5 -11 10 0 6 2 10 4 10 3
0 8 -4 11 -10z m-701 -45 c36 -47 43 -81 18 -94 -15 -8 -23 -7 -33 5 -7 8 -18
13 -25 10 -19 -7 -23 3 -14 35 8 26 6 31 -13 39 -20 7 -20 9 -4 15 9 4 17 13
17 21 0 21 26 6 54 -31z m343 -5 c7 -8 13 -11 13 -6 0 5 7 3 15 -4 8 -7 15 -9
15 -4 0 10 20 -17 20 -27 0 -4 -9 -9 -20 -12 -11 -3 -20 -2 -20 2 0 4 -6 8
-12 8 -20 0 -93 46 -80 51 6 2 8 10 5 18 -5 13 -1 13 23 2 16 -7 34 -20 41
-28z m-217 10 c0 -5 -4 -10 -10 -10 -5 0 -10 5 -10 10 0 6 5 10 10 10 6 0 10
-4 10 -10z m-960 -15 c11 -13 10 -14 -4 -9 -9 3 -16 10 -16 15 0 13 6 11 20
-6z m-1484 -10 c10 -8 15 -15 9 -15 -5 -1 -29 -5 -52 -9 -49 -9 -56 1 -15 23
34 19 34 19 58 1z m1587 -12 c-7 -2 -19 -2 -25 0 -7 3 -2 5 12 5 14 0 19 -2
13 -5z m1034 -20 l55 -27 -24 -19 c-12 -10 -31 -24 -40 -32 -19 -16 -82 -10
-97 9 -25 32 -22 54 11 75 18 11 34 21 36 21 2 0 28 -12 59 -27z m-2669 -18
c20 2 43 5 51 7 7 1 16 -3 19 -11 2 -8 0 -11 -6 -7 -6 3 -17 0 -25 -8 -8 -8
-17 -12 -21 -9 -3 4 -6 1 -6 -6 0 -6 -7 -11 -17 -9 -19 4 -63 44 -63 59 0 6 7
4 15 -5 10 -9 29 -13 53 -11z m93 12 c-1 -12 -15 -9 -19 4 -3 6 1 10 8 8 6 -3
11 -8 11 -12z m2201 -27 c5 -17 15 -29 22 -27 6 2 19 0 29 -5 17 -9 17 -11 -4
-29 -26 -23 -55 -25 -62 -5 -5 12 -13 13 -37 6 -60 -17 -71 3 -32 58 31 43 69
44 84 2z m-1723 -6 c64 -25 68 -64 26 -260 -3 -14 -22 -28 -56 -43 -28 -11
-56 -21 -62 -21 -15 0 -98 91 -109 119 -11 29 -2 94 18 133 17 33 70 75 104
81 14 2 28 5 32 6 4 0 25 -6 47 -15z m2261 -49 c24 -14 24 -14 3 -15 -12 0
-26 -6 -30 -12 -4 -7 -16 -14 -25 -14 -10 -1 -29 -5 -44 -8 -25 -7 -25 -5 11
28 42 40 49 42 85 21z m291 -5 c10 -6 19 -20 19 -32 0 -21 0 -21 -16 -2 -8 10
-12 12 -8 4 4 -8 -3 -5 -15 7 -11 12 -21 25 -21 28 0 8 20 6 41 -5z m-1609
-21 c17 -12 37 -37 44 -55 18 -43 4 -80 -62 -164 -48 -61 -54 -65 -114 -75
-89 -14 -120 102 -58 215 39 71 63 87 151 99 5 0 22 -9 39 -20z m1808 1 c0 -5
-2 -10 -4 -10 -3 0 -8 5 -11 10 -3 6 -1 10 4 10 6 0 11 -4 11 -10z m-285 -10
c3 -5 1 -10 -4 -10 -6 0 -11 5 -11 10 0 6 2 10 4 10 3 0 8 -4 11 -10z m-35
-30 c0 -5 -9 -6 -20 -3 -11 3 -17 9 -15 14 7 10 35 1 35 -11z m-810 -2 c16 6
30 7 30 2 0 -4 8 -7 18 -5 9 1 21 0 25 -2 12 -7 -84 -90 -102 -88 -68 6 -131
18 -131 24 0 4 17 17 39 29 21 12 44 29 51 37 10 11 16 12 26 4 10 -8 22 -8
44 -1z m596 -13 c-23 -18 -126 -21 -126 -4 0 6 11 8 28 5 15 -3 34 -2 42 4 8
5 29 10 45 10 29 -1 29 -1 11 -15z m-366 -15 c0 -5 5 -10 11 -10 5 0 7 5 4 10
-7 12 34 13 53 2 9 -6 6 -14 -12 -31 -14 -13 -29 -21 -34 -17 -9 5 -95 -24
-108 -37 -11 -11 -44 -8 -44 3 0 6 4 10 9 10 5 0 29 18 52 40 42 39 69 51 69
30z m-1389 -546 c12 -7 14 -15 8 -31 -5 -13 -13 -23 -18 -23 -11 0 -9 33 2 41
5 3 2 9 -7 12 -11 5 -16 1 -16 -13 0 -25 -17 -35 -22 -13 -5 20 22 58 31 45 3
-5 13 -13 22 -18z m-289 -18 c9 -14 0 -26 -18 -26 -11 0 -13 6 -9 20 5 14 2
20 -9 20 -9 0 -16 5 -16 10 0 12 41 -7 52 -24z m38 4 c0 -5 -4 -10 -10 -10 -5
0 -10 5 -10 10 0 6 5 10 10 10 6 0 10 -4 10 -10z m55 0 c-3 -5 -13 -10 -21
-10 -8 0 -14 5 -14 10 0 6 9 10 21 10 11 0 17 -4 14 -10z m275 2 c0 -4 -9 -25
-19 -45 -13 -26 -22 -34 -27 -25 -14 22 -12 53 5 65 18 14 41 17 41 5z m965
-2 c-3 -5 -12 -10 -18 -10 -7 0 -6 4 3 10 19 12 23 12 15 0z m-1378 -22 c-3
-8 -6 -5 -6 6 -1 11 2 17 5 13 3 -3 4 -12 1 -19z m-21 -15 c-10 -10 -19 5 -10
18 6 11 8 11 12 0 2 -7 1 -15 -2 -18z m262 -8 c-3 -3 -9 2 -12 12 -6 14 -5 15
5 6 7 -7 10 -15 7 -18z m1172 15 c0 -5 -5 -10 -11 -10 -5 0 -7 5 -4 10 3 6 8
10 11 10 2 0 4 -4 4 -10z m-1624 -24 c10 -21 9 -25 -7 -29 -15 -4 -19 0 -19
24 0 35 11 37 26 5z m1734 4 c0 -13 -7 -20 -20 -20 -23 0 -26 10 -8 28 18 18
28 15 28 -8z m-1359 -58 c-6 -2 -11 -10 -11 -18 0 -8 -4 -14 -10 -14 -5 0 -10
11 -10 24 0 13 -3 31 -6 40 -3 9 -1 16 4 16 6 0 13 -10 15 -22 5 -21 5 -21 5
2 0 43 3 46 14 10 7 -24 6 -36 -1 -38z m106 21 c-3 -10 -5 -2 -5 17 0 19 2 27
5 18 2 -10 2 -26 0 -35z m1193 32 c0 -8 -7 -15 -15 -15 -16 0 -20 12 -8 23 11
12 23 8 23 -8z m-1992 -66 c0 -21 -4 -39 -8 -39 -11 0 -20 38 -20 80 1 32 2
34 15 16 7 -10 13 -36 13 -57z m235 49 c7 -26 1 -38 -19 -38 -8 0 -14 10 -14
23 0 40 24 51 33 15z m596 -38 c-3 -3 -5 -15 -4 -27 1 -13 -2 -23 -7 -23 -4 0
-9 10 -9 23 -1 23 -1 24 5 60 7 34 8 34 15 2 4 -16 4 -32 0 -35z m-337 28 c-7
-7 -12 -8 -12 -2 0 14 12 26 19 19 2 -3 -1 -11 -7 -17z m48 12 c0 -5 -2 -10
-4 -10 -3 0 -8 5 -11 10 -3 6 -1 10 4 10 6 0 11 -4 11 -10z m-85 -21 c-10 -15
-25 -10 -19 6 4 8 10 12 15 9 5 -3 7 -10 4 -15z m-47 -6 c-5 -25 -28 -28 -28
-4 0 12 6 21 16 21 9 0 14 -7 12 -17z m341 -10 c0 -25 -1 -25 -8 -8 -5 11 -7
23 -4 28 8 14 13 7 12 -20z m133 17 c6 0 8 -6 5 -14 -3 -7 -1 -18 5 -24 12
-12 1 -35 -13 -27 -5 4 -9 1 -9 -5 0 -7 8 -9 21 -5 15 5 19 4 15 -4 -4 -6 -18
-11 -32 -11 -14 0 -23 -4 -20 -9 3 -5 -10 -11 -30 -13 -19 -2 -37 0 -40 4 -5
7 17 12 42 9 16 -2 30 19 38 54 6 29 6 29 -7 7 -13 -23 -14 -23 -14 13 0 27 4
34 14 30 8 -3 19 -5 25 -5z m-967 -55 c2 -53 -20 -42 -23 13 -3 38 -1 45 10
34 7 -7 13 -28 13 -47z m733 15 c3 -24 0 -31 -10 -27 -9 3 -14 -3 -15 -15 -2
-28 -6 -30 -53 -34 -44 -4 -45 -2 -29 28 9 17 13 18 20 7 7 -10 8 -5 3 12 -3
15 -1 30 5 33 7 4 11 -1 11 -13 0 -11 4 -22 9 -26 6 -3 8 9 4 29 -4 28 -2 35
13 39 31 8 39 2 42 -33z m337 -28 c-3 -10 -9 -12 -15 -6 -6 6 -5 22 3 43 l12
34 3 -28 c2 -14 1 -34 -3 -43z m995 59 c0 -12 -20 -25 -27 -18 -7 7 6 27 18
27 5 0 9 -4 9 -9z m-1620 -11 c0 -5 -4 -10 -9 -10 -6 0 -13 5 -16 10 -3 6 1
10 9 10 9 0 16 -4 16 -10z m142 -12 c-7 -7 -12 -8 -12 -2 0 14 12 26 19 19 2
-3 -1 -11 -7 -17z m607 -9 c6 -17 15 -28 21 -24 15 9 30 -4 23 -21 -3 -9 -9
-12 -12 -7 -3 4 -15 13 -26 19 -11 6 -23 22 -26 35 -7 25 -12 11 -10 -31 0
-24 0 -23 -11 5 l-12 30 -7 -35 -6 -35 -2 35 c-1 27 4 38 22 46 33 17 34 17
46 -17z m-1146 9 c5 -17 -3 -48 -13 -48 -4 0 -7 14 -8 30 -1 30 13 41 21 18z
m349 -3 c0 -5 -5 -11 -11 -13 -6 -2 -11 4 -11 13 0 9 5 15 11 13 6 -2 11 -8
11 -13z m168 0 c0 -8 -4 -15 -10 -15 -5 0 -10 7 -10 15 0 8 5 15 10 15 6 0 10
-7 10 -15z m-35 -24 c-3 -12 -10 -21 -15 -21 -5 0 -4 11 2 25 13 29 23 26 13
-4z m298 4 c17 -24 17 -25 -1 -25 -13 0 -21 9 -24 25 -6 31 2 31 25 0z m-475
3 c-7 -19 -38 -22 -38 -4 0 10 9 16 21 16 12 0 19 -5 17 -12z m-58 -13 c0 -8
-7 -15 -15 -15 -16 0 -20 12 -8 23 11 12 23 8 23 -8z m188 -22 c-4 -36 -6 -38
-38 -38 -19 0 -39 -3 -45 -6 -5 -4 -18 -4 -27 0 -16 6 -16 8 1 29 16 22 19 23
34 8 8 -9 20 -16 26 -16 14 0 14 17 1 25 -13 8 -13 25 -1 25 5 0 14 -12 19
-27 l10 -28 1 33 c1 17 6 32 12 32 6 0 9 -15 7 -37z m309 15 c-3 -8 -6 -5 -6
6 -1 11 2 17 5 13 3 -3 4 -12 1 -19z m880 16 c-3 -3 -12 -4 -19 -1 -8 3 -5 6
6 6 11 1 17 -2 13 -5z m-1427 -39 c0 -29 -26 -45 -71 -43 -19 0 -44 -2 -56 -6
-29 -9 -31 14 -3 39 16 15 22 15 35 5 12 -10 15 -10 15 5 0 10 6 15 18 13 9
-2 16 -10 15 -16 -2 -7 4 -12 12 -12 8 0 14 3 14 8 -3 18 2 32 11 32 6 0 10
-11 10 -25z m1022 -17 c-7 -7 -12 -8 -12 -2 0 14 12 26 19 19 2 -3 -1 -11 -7
-17z m53 12 c3 -5 1 -10 -4 -10 -6 0 -11 5 -11 10 0 6 2 10 4 10 3 0 8 -4 11
-10z m50 -10 c3 -5 -1 -10 -10 -10 -9 0 -13 5 -10 10 3 6 8 10 10 10 2 0 7 -4
10 -10z m-268 -36 c-3 -3 -12 -4 -19 -1 -8 3 -5 6 6 6 11 1 17 -2 13 -5z m53
-10 c0 -8 -5 -12 -10 -9 -6 4 -8 11 -5 16 9 14 15 11 15 -7z m330 2 c0 -2 -7
-6 -15 -10 -8 -3 -15 -1 -15 4 0 6 7 10 15 10 8 0 15 -2 15 -4z m35 -6 c-3 -5
-10 -10 -16 -10 -5 0 -9 5 -9 10 0 6 7 10 16 10 8 0 12 -4 9 -10z m205 -10 c0
-5 -4 -10 -10 -10 -5 0 -10 5 -10 10 0 6 5 10 10 10 6 0 10 -4 10 -10z m-620
-10 c0 -5 -4 -10 -10 -10 -5 0 -10 5 -10 10 0 6 5 10 10 10 6 0 10 -4 10 -10z
m236 -17 c-10 -10 -19 5 -10 18 6 11 8 11 12 0 2 -7 1 -15 -2 -18z m-181 -3
c3 -5 1 -10 -4 -10 -6 0 -11 5 -11 10 0 6 2 10 4 10 3 0 8 -4 11 -10z m-105
-14 c0 -3 -4 -8 -10 -11 -5 -3 -10 -1 -10 4 0 6 5 11 10 11 6 0 10 -2 10 -4z
m170 0 c0 -3 -4 -8 -10 -11 -5 -3 -10 -1 -10 4 0 6 5 11 10 11 6 0 10 -2 10
-4z m-110 -16 c0 -5 -2 -10 -4 -10 -3 0 -8 5 -11 10 -3 6 -1 10 4 10 6 0 11
-4 11 -10z m-170 -20 c0 -5 -5 -10 -11 -10 -5 0 -7 5 -4 10 3 6 8 10 11 10 2
0 4 -4 4 -10z m-90 -10 c0 -5 -5 -10 -11 -10 -5 0 -7 5 -4 10 3 6 8 10 11 10
2 0 4 -4 4 -10z m-300 -30 c0 -5 -5 -10 -11 -10 -5 0 -7 5 -4 10 3 6 8 10 11
10 2 0 4 -4 4 -10z m40 0 c0 -5 -8 -10 -17 -10 -15 0 -16 2 -3 10 19 12 20 12
20 0z m-190 -48 c0 -13 -12 -22 -22 -16 -10 6 -1 24 13 24 5 0 9 -4 9 -8z
m-40 -52 c0 -5 -5 -10 -11 -10 -5 0 -7 5 -4 10 3 6 8 10 11 10 2 0 4 -4 4 -10z
m-44 -22 c-10 -6 -22 -6 -26 -2 -5 5 3 10 18 11 22 1 24 0 8 -9z m-99 -4 c-3
-3 -12 -4 -19 -1 -8 3 -5 6 6 6 11 1 17 -2 13 -5z m-97 -128 c0 -3 -4 -8 -10
-11 -5 -3 -10 -1 -10 4 0 6 5 11 10 11 6 0 10 -2 10 -4z m4230 -786 c0 -5 -5
-10 -11 -10 -5 0 -7 5 -4 10 3 6 8 10 11 10 2 0 4 -4 4 -10z m-209 -43 c-10
-9 -11 -8 -5 6 3 10 9 15 12 12 3 -3 0 -11 -7 -18z m-1 -42 c0 -8 -4 -15 -10
-15 -5 0 -7 7 -4 15 4 8 8 15 10 15 2 0 4 -7 4 -15z m26 -34 c-4 -5 -1 -11 6
-13 8 -3 6 -7 -5 -11 -17 -6 -24 12 -10 26 9 10 15 8 9 -2z m174 -61 c0 -11 4
-20 9 -20 5 0 7 -9 4 -20 -7 -27 -23 -25 -22 3 1 12 -2 30 -6 40 -4 10 -3 17
4 17 6 0 11 -9 11 -20z m-96 -2 c-3 -5 -10 -6 -15 -3 -5 4 -9 1 -9 -4 0 -6 4
-11 9 -11 10 0 -3 -67 -15 -78 -4 -4 -4 12 0 35 3 25 2 44 -4 48 -15 9 -2 24
20 22 10 -1 16 -5 14 -9z m281 2 c3 -5 -1 -10 -9 -10 -9 0 -16 5 -16 10 0 6 4
10 9 10 6 0 13 -4 16 -10z m-480 -29 c3 -5 1 -12 -5 -16 -5 -3 -10 1 -10 9 0
18 6 21 15 7z m142 -93 c-3 -7 -5 -2 -5 12 0 14 2 19 5 13 2 -7 2 -19 0 -25z
m110 -5 c-3 -10 -5 -4 -5 12 0 17 2 24 5 18 2 -7 2 -21 0 -30z m47 22 c-4 -8
-8 -15 -10 -15 -2 0 -4 7 -4 15 0 8 4 15 10 15 5 0 7 -7 4 -15z m302 -37 c0
-28 -15 -28 -17 0 0 11 -3 12 -6 5 -7 -18 -20 -16 -27 3 -3 9 -2 12 5 9 6 -4
13 2 16 14 7 28 29 5 29 -31z m-384 0 c-2 -24 -8 -47 -13 -52 -5 -5 -6 8 -3
30 11 74 22 89 16 22z m268 27 c0 -8 -4 -15 -10 -15 -5 0 -10 7 -10 15 0 8 5
15 10 15 6 0 10 -7 10 -15z m-372 -21 c0 -17 -3 -22 -8 -13 -5 6 -6 18 -3 26
8 19 11 16 11 -13z m72 14 c0 -7 -5 -20 -10 -28 -8 -12 -10 -9 -10 13 0 15 5
27 10 27 6 0 10 -6 10 -12z m270 -4 c0 -2 -7 -4 -15 -4 -8 0 -15 4 -15 10 0 5
7 7 15 4 8 -4 15 -8 15 -10z m-50 -4 c0 -4 -5 -11 -12 -18 -9 -9 -15 -9 -27 1
-8 6 -12 7 -8 1 3 -6 0 -11 -8 -11 -10 0 -11 5 -5 16 7 15 60 24 60 11z m-387
-45 c4 -8 1 -17 -5 -21 -7 -4 -8 -3 -4 4 4 7 3 12 -1 12 -15 0 -33 -23 -33
-42 0 -10 -3 -18 -7 -18 -5 0 -6 -32 -5 -71 3 -49 0 -69 -7 -65 -12 8 -10 130
2 142 4 4 7 16 7 26 0 10 5 18 11 18 5 0 7 5 3 12 -4 6 -3 8 4 4 6 -3 13 -2
17 4 8 14 12 13 18 -5z m154 -32 c-3 -10 -5 -4 -5 12 0 17 2 24 5 18 2 -7 2
-21 0 -30z m338 19 c-3 -3 -11 0 -18 7 -9 10 -8 11 6 5 10 -3 15 -9 12 -12z
m-380 -52 c-3 -5 -11 -10 -16 -10 -6 0 -7 5 -4 10 3 6 11 10 16 10 6 0 7 -4 4
-10z m-55 -22 c0 -18 -2 -20 -9 -8 -6 8 -7 18 -5 22 9 14 14 9 14 -14z m-60
-18 c-8 -16 -9 -25 0 -35 9 -11 6 -16 -11 -25 -20 -12 -21 -11 -15 16 4 16 8
33 9 38 2 13 21 35 25 31 2 -2 -2 -13 -8 -25z m478 2 c2 -7 -3 -12 -12 -12 -9
0 -16 7 -16 16 0 17 22 14 28 -4z m19 -4 c-3 -8 -6 -5 -6 6 -1 11 2 17 5 13 3
-3 4 -12 1 -19z m-337 -98 c0 -5 -5 -10 -11 -10 -5 0 -7 5 -4 10 3 6 8 10 11
10 2 0 4 -4 4 -10z m40 -4 c0 -3 -4 -8 -10 -11 -5 -3 -10 -1 -10 4 0 6 5 11
10 11 6 0 10 -2 10 -4z m-199 -346 c5 0 9 8 10 18 0 14 2 14 8 -3 10 -24 -10
-39 -39 -30 -17 5 -18 9 -7 26 10 16 13 17 15 4 2 -8 8 -15 13 -15z m-124 -30
l10 24 12 -22 c10 -19 9 -22 -13 -28 -42 -10 -55 -3 -43 26 l10 25 7 -25 7
-25 10 25z m-57 -5 c0 -8 -4 -15 -10 -15 -5 0 -10 7 -10 15 0 8 5 15 10 15 6
0 10 -7 10 -15z"/>
<path d="M1224 4384 c13 -28 21 -30 30 -8 3 8 2 12 -4 9 -6 -3 -10 -2 -10 3 0
6 -6 12 -14 15 -11 4 -11 1 -2 -19z"/>
<path d="M900 4390 c0 -5 5 -10 10 -10 6 0 10 5 10 10 0 6 -4 10 -10 10 -5 0
-10 -4 -10 -10z"/>
<path d="M930 4380 c-6 -11 -14 -18 -18 -16 -5 3 -8 -4 -9 -14 -3 -37 44 -54
154 -56 81 -2 101 0 97 11 -8 19 -81 27 -142 15 -44 -8 -57 -7 -78 7 l-25 16
22 20 c17 16 23 17 30 6 12 -20 11 -31 -3 -23 -7 4 -8 3 -4 -5 4 -6 12 -9 17
-6 16 10 10 40 -11 52 -16 11 -21 10 -30 -7z"/>
<path d="M1120 4383 c0 -15 -2 -16 -10 -3 -5 8 -12 11 -16 7 -4 -4 6 -19 21
-34 24 -24 26 -25 16 -5 -14 26 -4 29 15 5 8 -11 13 -13 14 -5 0 6 -9 21 -20
32 -18 18 -20 18 -20 3z"/>
<path d="M1195 4380 c-3 -5 1 -10 9 -10 9 0 16 5 16 10 0 6 -4 10 -9 10 -6 0
-13 -4 -16 -10z"/>
<path d="M1170 4350 c0 -5 7 -10 16 -10 8 0 12 5 9 10 -3 6 -10 10 -16 10 -5
0 -9 -4 -9 -10z"/>
<path d="M1255 4350 c-3 -5 1 -10 10 -10 9 0 13 5 10 10 -3 6 -8 10 -10 10 -2
0 -7 -4 -10 -10z"/>
<path d="M1226 4337 c3 -10 9 -15 12 -12 3 3 0 11 -7 18 -10 9 -11 8 -5 -6z"/>
<path d="M1250 4313 c0 -7 -9 -13 -20 -15 -12 -2 -19 -7 -18 -13 4 -11 28 -14
51 -6 14 5 14 8 1 25 -8 11 -14 15 -14 9z"/>
<path d="M2380 4260 c0 -5 5 -10 11 -10 5 0 7 5 4 10 -3 6 -8 10 -11 10 -2 0
-4 -4 -4 -10z"/>
<path d="M2230 4075 c7 -8 17 -15 22 -15 6 0 5 7 -2 15 -7 8 -17 15 -22 15 -6
0 -5 -7 2 -15z"/>
<path d="M2645 4370 c-4 -12 -11 -17 -18 -13 -7 4 -5 -2 3 -12 14 -18 15 -18
18 3 2 12 8 20 13 17 5 -4 9 -2 9 4 0 20 -19 21 -25 1z"/>
<path d="M2670 4092 c0 -12 19 -26 26 -19 2 2 -2 10 -11 17 -9 8 -15 8 -15 2z"/>
<path d="M1130 3215 c0 -8 4 -15 10 -15 5 0 7 7 4 15 -4 8 -8 15 -10 15 -2 0
-4 -7 -4 -15z"/>
<path d="M3835 4380 c3 -5 8 -10 11 -10 2 0 4 5 4 10 0 6 -5 10 -11 10 -5 0
-7 -4 -4 -10z"/>
<path d="M3900 4386 c0 -8 71 -12 76 -4 3 4 -13 8 -35 8 -23 0 -41 -2 -41 -4z"/>
<path d="M30 4360 c0 -13 11 -13 30 0 12 8 11 10 -7 10 -13 0 -23 -4 -23 -10z"/>
<path d="M3440 4310 l-35 -6 28 -8 c15 -5 37 -6 50 -2 14 3 33 -1 48 -11 l24
-16 -24 26 c-25 28 -32 29 -91 17z"/>
<path d="M4760 4290 c8 -5 20 -10 25 -10 6 0 3 5 -5 10 -8 5 -19 10 -25 10 -5
0 -3 -5 5 -10z"/>
<path d="M4165 4280 c-11 -18 -3 -20 50 -11 38 7 43 9 18 10 -17 0 -38 4 -46
7 -8 3 -18 0 -22 -6z"/>
<path d="M4290 4280 c0 -13 20 -13 40 0 12 8 9 10 -12 10 -16 0 -28 -4 -28
-10z"/>
<path d="M4395 4280 c-8 -13 15 -13 35 0 12 8 11 10 -7 10 -12 0 -25 -4 -28
-10z"/>
<path d="M4858 4263 c12 -2 30 -2 40 0 9 3 -1 5 -23 4 -22 0 -30 -2 -17 -4z"/>
<path d="M4105 4250 c-3 -5 1 -10 9 -10 8 0 18 5 21 10 3 6 -1 10 -9 10 -8 0
-18 -4 -21 -10z"/>
<path d="M3624 4227 c10 -7 45 -31 78 -55 33 -24 67 -42 76 -40 20 4 -14 30
-101 77 -56 30 -91 42 -53 18z"/>
<path d="M4030 4231 c0 -5 7 -12 16 -15 22 -9 24 -8 18 9 -7 16 -34 21 -34 6z"/>
<path d="M4565 4228 c-22 -5 -56 -9 -75 -8 -39 3 -98 3 -176 1 -34 -1 -70 -12
-110 -31 -150 -75 -217 -119 -164 -107 49 12 85 17 73 11 -28 -13 -2 -94 30
-94 3 0 29 -22 56 -50 28 -27 58 -50 68 -49 14 0 13 2 -4 9 -22 9 -32 30 -14
30 17 0 62 -28 59 -36 -5 -14 30 -17 61 -6 20 7 32 7 39 0 6 -6 27 -12 48 -14
l37 -3 -41 26 c-22 15 -38 31 -35 37 4 6 8 6 11 -2 2 -8 13 -10 29 -6 18 5 24
3 19 -5 -4 -6 -1 -11 8 -11 8 0 13 6 11 13 -3 8 6 13 25 14 18 1 30 -3 30 -10
0 -9 2 -9 8 1 5 7 19 14 31 17 41 8 61 16 61 26 0 6 -5 7 -12 2 -7 -4 -30 -8
-52 -9 l-38 0 53 24 c41 18 65 22 99 18 72 -9 85 -13 83 -25 -2 -6 4 -11 12
-11 35 0 8 28 -35 36 -8 2 -27 17 -42 33 -15 17 -37 31 -48 31 -12 0 -19 3
-17 8 6 9 64 8 74 -1 3 -4 16 -7 27 -7 21 1 21 1 2 15 -11 8 -15 15 -10 15 6
0 15 -5 22 -12 14 -14 -2 -38 -26 -38 -8 0 -12 -3 -8 -7 4 -5 11 -8 14 -8 11
0 76 -48 85 -62 4 -7 18 -13 30 -13 20 1 20 2 5 11 -30 17 -20 27 20 23 31 -4
40 -1 55 21 22 30 9 33 -27 4 -15 -11 -33 -18 -41 -15 -39 15 4 41 75 45 57 4
66 9 43 27 -11 8 -30 11 -51 7 -25 -4 -41 0 -62 15 -20 15 -30 18 -33 9 -3 -7
-6 -8 -6 -1 -1 6 8 19 18 28 18 17 20 17 29 -1 8 -13 21 -18 46 -18 20 1 36
-2 36 -6 0 -4 9 -5 20 -2 27 7 50 -13 51 -46 2 -23 2 -24 6 -4 6 32 -27 75
-87 113 -42 27 -60 33 -107 32 -30 0 -76 6 -102 14 -52 16 -127 16 -186 2z
m91 -78 c0 -11 -4 -20 -8 -20 -10 0 -11 24 -1 33 9 9 9 10 9 -13z m44 10 c0
-5 -7 -10 -16 -10 -8 0 -12 5 -9 10 3 6 10 10 16 10 5 0 9 -4 9 -10z m-213
-27 c46 -19 49 -24 33 -54 -8 -13 -7 -25 0 -39 11 -21 44 -27 55 -10 4 6 11 7
17 4 17 -10 -21 -34 -53 -34 -15 0 -31 -4 -34 -10 -3 -5 -1 -10 5 -10 6 0 8
-5 5 -11 -4 -5 -12 -8 -18 -6 -7 2 -22 0 -35 -4 -13 -5 -21 -5 -18 0 7 11 -49
22 -71 14 -15 -6 -16 -4 -6 8 10 12 7 17 -17 26 -17 6 -30 7 -30 2 0 -5 6 -9
13 -9 6 0 4 -5 -6 -11 -11 -6 -30 -8 -45 -3 -15 4 -30 7 -34 6 -3 -1 -9 5 -12
13 -4 11 2 15 25 15 24 0 30 -4 25 -15 -3 -9 0 -15 10 -15 9 0 14 7 12 18 -2
13 5 18 32 20 19 2 38 8 41 14 4 5 31 18 60 28 44 15 49 19 25 19 -20 1 -27 5
-23 15 7 17 -30 29 -37 12 -2 -6 -5 -3 -5 6 -1 15 11 25 34 27 5 1 29 -7 52
-16z m-274 -7 c4 -10 1 -13 -8 -9 -8 3 -12 9 -9 14 7 12 11 11 17 -5z m107 4
c0 -5 -7 -7 -15 -4 -8 4 -15 8 -15 10 0 2 7 4 15 4 8 0 15 -4 15 -10z m333 -7
c8 3 28 2 44 -3 27 -8 26 -8 -12 -10 -22 -1 -44 -2 -49 -1 -5 1 -6 -5 -3 -14
7 -17 3 -19 -21 -6 -25 13 -62 -5 -62 -29 0 -12 -4 -18 -10 -15 -5 3 -10 10
-10 15 0 14 46 53 66 56 10 2 20 8 23 15 2 8 5 8 11 -1 4 -7 15 -10 23 -7z
m-93 -3 c0 -5 -4 -10 -10 -10 -5 0 -10 5 -10 10 0 6 5 10 10 10 6 0 10 -4 10
-10z m-180 -10 c0 -5 -6 -7 -14 -4 -7 3 -16 -2 -19 -10 -8 -21 25 -21 61 0
l27 16 -28 -26 c-36 -33 -59 -36 -129 -14 -29 8 -41 8 -53 -2 -12 -10 -15 -10
-15 3 0 13 11 16 55 16 37 -1 59 4 70 15 18 18 45 21 45 6z m-139 -63 c-10 -9
-11 -8 -5 6 3 10 9 15 12 12 3 -3 0 -11 -7 -18z m-56 -18 c11 -16 1 -19 -13
-3 -7 8 -8 14 -3 14 5 0 13 -5 16 -11z m45 -81 c0 -6 -6 -5 -15 2 -8 7 -15 14
-15 16 0 2 7 1 15 -2 8 -4 15 -11 15 -16z m140 -32 c0 -3 -4 -8 -10 -11 -5 -3
-10 -1 -10 4 0 6 5 11 10 11 6 0 10 -2 10 -4z"/>
<path d="M4470 4110 c0 -5 5 -10 10 -10 6 0 10 5 10 10 0 6 -4 10 -10 10 -5 0
-10 -4 -10 -10z"/>
<path d="M4454 4051 c3 -5 18 -11 33 -14 26 -5 26 -4 8 9 -21 15 -49 19 -41 5z"/>
<path d="M3906 4075 c57 -56 114 -94 114 -76 0 11 -48 51 -61 51 -5 0 -27 18
-49 40 -22 22 -45 40 -50 40 -6 0 15 -25 46 -55z"/>
<path d="M3615 4110 c3 -5 8 -10 11 -10 2 0 4 5 4 10 0 6 -5 10 -11 10 -5 0
-7 -4 -4 -10z"/>
<path d="M3670 4101 c0 -9 30 -24 36 -18 2 1 -6 8 -16 15 -11 7 -20 8 -20 3z"/>
<path d="M3536 4047 c3 -10 9 -15 12 -12 3 3 0 11 -7 18 -10 9 -11 8 -5 -6z"/>
<path d="M3492 4034 c10 -10 20 -15 24 -12 3 4 -5 12 -18 18 -22 12 -22 12 -6
-6z"/>
<path d="M3815 4040 c-8 -14 13 -28 48 -34 22 -3 48 -13 60 -21 29 -20 36 -19
30 5 -3 11 -9 17 -14 14 -5 -3 -14 -2 -20 2 -8 5 -8 9 1 14 8 5 1 11 -21 19
-35 11 -78 11 -84 1z"/>
<path d="M4980 4003 c-21 -22 -22 -24 -4 -15 23 12 51 42 38 41 -5 0 -20 -12
-34 -26z"/>
<path d="M4658 3984 c2 -14 13 -31 23 -37 11 -7 19 -15 19 -18 0 -7 -10 -8
-95 -9 -35 0 -46 -3 -36 -9 12 -8 10 -12 -12 -22 -16 -7 -27 -19 -25 -28 2 -9
6 -14 9 -11 3 3 13 -3 23 -12 19 -19 86 -25 86 -8 0 6 9 10 19 10 27 0 51 10
51 22 0 5 -5 6 -11 2 -16 -10 -106 -13 -137 -5 -26 7 -26 8 -7 18 11 6 50 18
87 27 l67 17 39 -25 c36 -22 41 -23 61 -10 11 8 21 21 21 29 0 7 15 18 33 25
19 7 27 14 19 17 -8 3 -19 0 -25 -6 -6 -6 -23 -11 -37 -11 -14 0 -31 -5 -37
-11 -8 -8 -11 -6 -10 6 1 10 -4 20 -12 23 -10 3 -11 -2 -7 -19 7 -23 6 -23 -8
-5 -9 10 -13 23 -10 27 9 15 -30 44 -62 46 -28 2 -31 0 -26 -23z m-35 -151
c-7 -2 -21 -2 -30 0 -10 3 -4 5 12 5 17 0 24 -2 18 -5z"/>
<path d="M3960 3993 c0 -15 26 -46 36 -42 5 2 -1 15 -13 28 -13 13 -23 20 -23
14z"/>
<path d="M4929 3963 c-13 -16 -12 -17 4 -4 9 7 17 15 17 17 0 8 -8 3 -21 -13z"/>
<path d="M3978 3928 c-20 -5 -44 -18 -53 -28 -15 -17 -15 -18 7 -17 13 0 56
-3 96 -6 76 -7 112 2 112 28 0 25 -98 39 -162 23z"/>
<path d="M0 3885 c0 -14 45 -25 77 -19 31 6 34 8 18 14 -11 4 -26 3 -33 -3 -9
-7 -16 -7 -24 1 -12 12 -38 17 -38 7z"/>
<path d="M4647 3879 c8 -8 16 -8 30 0 16 9 14 10 -11 11 -22 0 -27 -3 -19 -11z"/>
<path d="M4740 3875 c-8 -9 -8 -15 -2 -15 12 0 26 19 19 26 -2 2 -10 -2 -17
-11z"/>
<path d="M4470 3846 c6 -6 18 -5 32 1 21 10 21 10 -9 9 -19 -1 -28 -5 -23 -10z"/>
<path d="M4253 3826 c-31 -15 -29 -23 5 -24 35 0 59 18 40 29 -15 10 -16 10
-45 -5z"/>
<path d="M4825 3800 c-3 -5 -1 -10 4 -10 6 0 11 5 11 10 0 6 -2 10 -4 10 -3 0
-8 -4 -11 -10z"/>
<path d="M4208 3784 c6 -3 9 -11 5 -16 -4 -7 1 -9 14 -6 11 3 31 -1 44 -8 28
-15 93 -20 69 -5 -8 6 -18 8 -22 5 -4 -3 -20 1 -35 9 -15 8 -41 17 -58 20 -16
4 -24 4 -17 1z"/>
<path d="M4550 3770 c0 -5 6 -10 14 -10 8 0 18 5 21 10 3 6 -3 10 -14 10 -12
0 -21 -4 -21 -10z"/>
<path d="M4968 3773 c7 -3 16 -2 19 1 4 3 -2 6 -13 5 -11 0 -14 -3 -6 -6z"/>
<path d="M4175 3760 c-3 -5 -2 -10 4 -10 5 0 13 5 16 10 3 6 2 10 -4 10 -5 0
-13 -4 -16 -10z"/>
<path d="M4836 3761 c2 -2 -2 -11 -9 -19 -10 -13 -9 -15 8 -8 11 5 28 11 38
13 28 8 20 22 -12 20 -16 -1 -27 -4 -25 -6z"/>
<path d="M4905 3750 c3 -5 11 -10 16 -10 6 0 7 5 4 10 -3 6 -11 10 -16 10 -6
0 -7 -4 -4 -10z"/>
<path d="M4985 3740 c-19 -8 -19 -9 3 -9 12 -1 22 4 22 9 0 6 -1 10 -2 9 -2 0
-12 -4 -23 -9z"/>
<path d="M4080 3729 c-24 -8 -24 -8 5 -6 17 1 36 -2 43 -6 6 -5 12 -4 12 1 0
8 -27 25 -33 21 -1 -1 -13 -5 -27 -10z"/>
<path d="M3450 3726 c0 -2 8 -10 18 -17 15 -13 16 -12 3 4 -13 16 -21 21 -21
13z"/>
<path d="M4305 3720 c-3 -6 1 -7 9 -4 18 7 21 14 7 14 -6 0 -13 -4 -16 -10z"/>
<path d="M5055 3720 c-3 -5 1 -10 10 -10 9 0 13 5 10 10 -3 6 -8 10 -10 10 -2
0 -7 -4 -10 -10z"/>
<path d="M4568 3693 c-8 -10 -7 -12 6 -7 9 3 16 1 16 -5 0 -6 5 -11 12 -11 6
0 8 3 5 7 -4 3 -2 12 4 19 8 10 6 12 -11 11 -12 -1 -26 -7 -32 -14z"/>
<path d="M4766 3701 c-3 -5 5 -8 18 -7 13 0 22 4 19 9 -6 10 -31 9 -37 -2z"/>
<path d="M3286 3685 c18 -14 17 -14 -13 -15 -17 0 -35 -4 -38 -10 -4 -6 1 -7
12 -4 16 5 16 4 -1 -10 -13 -10 -15 -16 -6 -16 9 0 8 -6 -6 -22 l-19 -23 22
19 c13 10 20 22 18 26 -7 11 21 20 58 19 21 -1 25 -3 12 -6 -26 -6 -44 -23
-24 -23 12 0 12 -2 -1 -11 -13 -9 -13 -10 0 -6 8 2 14 10 12 17 -2 9 6 11 30
6 23 -4 29 -3 18 4 -8 5 -11 10 -5 10 5 0 -5 14 -23 30 -18 17 -41 30 -50 30
-13 0 -13 -2 4 -15z"/>
<path d="M4235 3690 c3 -5 21 -10 38 -10 24 0 28 3 17 10 -20 13 -63 13 -55 0z"/>
<path d="M4715 3690 c-3 -5 -2 -10 4 -10 5 0 13 5 16 10 3 6 2 10 -4 10 -5 0
-13 -4 -16 -10z"/>
<path d="M3215 3680 c-7 -12 2 -12 30 0 19 8 19 9 -2 9 -12 1 -25 -3 -28 -9z"/>
<path d="M3706 3671 c-3 -5 5 -8 19 -8 14 0 22 3 19 8 -3 5 -11 9 -19 9 -8 0
-16 -4 -19 -9z"/>
<path d="M3856 3665 c-3 -8 -1 -15 4 -15 6 0 10 7 10 15 0 8 -2 15 -4 15 -2 0
-6 -7 -10 -15z"/>
<path d="M4025 3670 c-3 -5 -2 -10 4 -10 5 0 13 5 16 10 3 6 2 10 -4 10 -5 0
-13 -4 -16 -10z"/>
<path d="M4430 3670 c0 -5 5 -10 11 -10 5 0 7 5 4 10 -3 6 -8 10 -11 10 -2 0
-4 -4 -4 -10z"/>
<path d="M3165 3640 c-16 -16 -25 -30 -19 -29 8 0 60 59 52 59 -3 0 -17 -13
-33 -30z"/>
<path d="M3905 3660 c4 -6 11 -8 16 -5 14 9 11 15 -7 15 -8 0 -12 -5 -9 -10z"/>
<path d="M3724 3641 c13 -21 44 -32 52 -19 4 7 3 10 -1 5 -5 -4 -19 0 -33 9
-13 9 -21 11 -18 5z"/>
<path d="M4518 3633 c6 -2 18 -2 25 0 6 3 1 5 -13 5 -14 0 -19 -2 -12 -5z"/>
<path d="M4705 3630 c-3 -5 -1 -10 4 -10 6 0 11 5 11 10 0 6 -2 10 -4 10 -3 0
-8 -4 -11 -10z"/>
<path d="M3798 3623 c7 -3 16 -2 19 1 4 3 -2 6 -13 5 -11 0 -14 -3 -6 -6z"/>
<path d="M4225 3622 c-2 -2 -17 -4 -34 -4 -18 -1 -34 -5 -37 -10 -3 -4 -10 -8
-15 -8 -6 0 -8 4 -5 8 5 8 -344 6 -352 -2 -2 -2 27 -21 65 -41 67 -36 208 -85
246 -85 11 0 56 18 101 39 121 59 149 69 171 60 11 -4 27 -8 35 -8 10 1 11 2
3 6 -7 2 -13 11 -13 19 0 9 5 12 11 8 7 -4 10 -1 7 7 -4 11 -26 14 -92 14 -48
0 -89 -1 -91 -3z"/>
<path d="M4828 3613 c6 -2 18 -2 25 0 6 3 1 5 -13 5 -14 0 -19 -2 -12 -5z"/>
<path d="M4428 3603 c6 -2 18 -2 25 0 6 3 1 5 -13 5 -14 0 -19 -2 -12 -5z"/>
<path d="M4553 3595 c0 -8 4 -12 9 -9 4 3 8 9 8 15 0 5 -4 9 -8 9 -5 0 -9 -7
-9 -15z"/>
<path d="M3410 3591 c0 -5 7 -25 15 -44 16 -39 20 -83 8 -90 -5 -2 -3 -2 4 -1
15 4 23 -19 23 -64 0 -39 14 -70 23 -55 4 6 4 22 1 37 -3 18 -1 25 6 21 13 -8
13 26 -1 45 -8 12 -9 10 -4 -7 3 -13 4 -23 0 -23 -11 0 -35 69 -35 101 0 27 2
30 15 19 8 -7 12 -17 8 -23 -3 -5 -1 -7 5 -4 18 12 2 44 -21 43 -14 -1 -23 6
-25 19 -2 12 0 16 5 10 9 -12 28 -13 39 -3 4 4 -5 12 -20 18 -33 12 -46 13
-46 1z"/>
<path d="M4728 3593 c12 -2 22 -8 22 -13 0 -5 24 -8 53 -6 28 2 81 4 116 5 35
0 62 3 60 6 -8 8 -195 9 -207 1 -7 -4 -12 -2 -12 3 0 6 -12 10 -27 10 -24 -2
-25 -2 -5 -6z"/>
<path d="M3295 3569 c-4 -6 -5 -12 -2 -15 2 -3 7 2 10 11 7 17 1 20 -8 4z"/>
<path d="M4630 3568 c0 -9 5 -20 10 -23 13 -8 13 5 0 25 -8 13 -10 13 -10 -2z"/>
<path d="M4698 3573 c7 -3 16 -2 19 1 4 3 -2 6 -13 5 -11 0 -14 -3 -6 -6z"/>
<path d="M5048 3573 c7 -3 16 -2 19 1 4 3 -2 6 -13 5 -11 0 -14 -3 -6 -6z"/>
<path d="M4511 3552 c-7 -13 -6 -19 2 -19 7 0 13 9 13 19 0 10 -1 18 -3 18 -1
0 -7 -8 -12 -18z"/>
<path d="M4888 3563 c7 -3 16 -2 19 1 4 3 -2 6 -13 5 -11 0 -14 -3 -6 -6z"/>
<path d="M4680 3550 c14 -4 36 -8 50 -8 22 0 22 1 -5 8 -16 4 -39 8 -50 8 -16
0 -15 -2 5 -8z"/>
<path d="M3316 3534 c-9 -8 -16 -23 -16 -32 0 -15 2 -15 11 -2 7 11 8 6 3 -19
-6 -33 -5 -34 10 -18 14 13 15 21 6 37 -9 16 -8 25 1 36 16 19 4 18 -15 -2z"/>
<path d="M831 3519 c0 -16 -16 -41 -38 -63 -45 -43 -83 -47 -118 -11 -14 13
-25 22 -25 19 0 -9 40 -84 46 -84 2 0 0 9 -6 20 -13 24 -5 26 18 4 10 -11 17
-13 20 -5 2 6 9 11 16 11 8 0 25 9 39 20 l26 20 4 -22 c3 -18 5 -16 6 8 0 16
6 35 12 41 6 6 9 23 6 39 -4 29 -4 29 -6 3z"/>
<path d="M4868 3523 c7 -3 16 -2 19 1 4 3 -2 6 -13 5 -11 0 -14 -3 -6 -6z"/>
<path d="M4518 3513 c6 -2 18 -2 25 0 6 3 1 5 -13 5 -14 0 -19 -2 -12 -5z"/>
<path d="M4580 3510 c34 -11 60 -11 35 0 -11 5 -29 8 -40 8 -16 0 -15 -2 5 -8z"/>
<path d="M5058 3513 c7 -3 16 -2 19 1 4 3 -2 6 -13 5 -11 0 -14 -3 -6 -6z"/>
<path d="M4278 3503 c7 -3 16 -2 19 1 4 3 -2 6 -13 5 -11 0 -14 -3 -6 -6z"/>
<path d="M2689 3452 c-62 -66 -62 -65 -29 -103 16 -19 30 -38 30 -44 0 -5 4
-4 9 4 12 18 36 -20 45 -71 6 -32 4 -38 -11 -38 -10 0 -24 -10 -32 -22 -12
-19 -11 -23 5 -35 10 -7 27 -13 39 -13 12 0 26 -5 32 -11 14 -14 33 -3 33 18
0 9 -4 30 -9 47 -47 152 -52 193 -25 203 12 4 11 8 -8 17 -13 6 -27 21 -33 34
-5 12 -14 22 -19 22 -5 0 -1 9 9 20 36 40 9 18 -36 -28z m41 -69 c0 -17 -19
-37 -27 -29 -4 5 -2 11 5 13 6 3 10 9 6 14 -3 5 0 9 5 9 6 0 11 -3 11 -7z m20
-212 c0 -5 -7 -11 -15 -15 -9 -3 -15 0 -15 9 0 8 7 15 15 15 8 0 15 -4 15 -9z"/>
<path d="M4170 3490 c0 -5 7 -10 16 -10 8 0 12 5 9 10 -3 6 -10 10 -16 10 -5
0 -9 -4 -9 -10z"/>
<path d="M4423 3483 c-16 -6 8 -33 29 -33 9 1 7 5 -4 14 -10 7 -15 16 -11 19
7 8 4 8 -14 0z"/>
<path d="M4953 3483 c9 -2 23 -2 30 0 6 3 -1 5 -18 5 -16 0 -22 -2 -12 -5z"/>
<path d="M1117 3461 c-4 -17 -3 -21 5 -13 5 5 8 16 6 23 -3 8 -7 3 -11 -10z"/>
<path d="M4468 3473 c7 -3 16 -2 19 1 4 3 -2 6 -13 5 -11 0 -14 -3 -6 -6z"/>
<path d="M4308 3453 c7 -3 16 -2 19 1 4 3 -2 6 -13 5 -11 0 -14 -3 -6 -6z"/>
<path d="M3352 3420 c0 -19 2 -27 5 -17 2 9 2 25 0 35 -3 9 -5 1 -5 -18z"/>
<path d="M4375 3440 c110 -22 103 -21 77 -7 -13 7 -44 14 -70 14 l-47 1 40 -8z"/>
<path d="M3560 3433 c-1 -5 -3 -24 -6 -44 -4 -27 -1 -38 11 -42 12 -5 14 -3 6
11 -5 9 -6 32 -4 50 3 17 3 32 -1 32 -3 0 -6 -3 -6 -7z"/>
<path d="M4527 3421 c6 -22 25 -30 21 -8 -3 13 1 13 47 3 19 -5 26 -4 20 2 -5
6 -29 13 -52 17 -39 6 -41 5 -36 -14z"/>
<path d="M4706 3428 c4 -12 1 -18 -7 -18 -9 -1 -8 -4 4 -11 9 -5 17 -17 17
-24 0 -14 14 -19 48 -18 6 1 12 -3 12 -7 0 -5 -6 -11 -12 -14 -7 -2 -2 -4 12
-3 19 2 26 -3 28 -20 4 -27 32 -54 32 -30 0 9 -5 19 -10 22 -6 4 -8 16 -4 27
3 12 2 18 -3 15 -13 -8 -76 35 -102 70 -12 15 -18 20 -15 11z"/>
<path d="M1094 3415 c-9 -21 -2 -26 13 -10 8 9 9 16 3 20 -6 3 -13 -1 -16 -10z"/>
<path d="M1155 3420 c3 -5 8 -10 11 -10 2 0 4 5 4 10 0 6 -5 10 -11 10 -5 0
-7 -4 -4 -10z"/>
<path d="M3080 3426 c0 -2 8 -10 18 -17 15 -13 16 -12 3 4 -13 16 -21 21 -21
13z"/>
<path d="M4655 3410 c3 -5 11 -10 16 -10 6 0 7 5 4 10 -3 6 -11 10 -16 10 -6
0 -7 -4 -4 -10z"/>
<path d="M502 3390 c0 -14 2 -19 5 -12 2 6 2 18 0 25 -3 6 -5 1 -5 -13z"/>
<path d="M3510 3395 c0 -8 2 -15 4 -15 2 0 6 7 10 15 3 8 1 15 -4 15 -6 0 -10
-7 -10 -15z"/>
<path d="M4588 3398 c5 -5 16 -8 23 -6 8 3 3 7 -10 11 -17 4 -21 3 -13 -5z"/>
<path d="M446 3375 c24 -39 24 -40 24 -28 0 6 -9 21 -21 34 l-20 24 17 -30z"/>
<path d="M820 3387 c0 -10 8 -17 18 -17 9 0 13 4 7 8 -5 4 -13 11 -17 16 -5 5
-8 2 -8 -7z"/>
<path d="M4768 3393 c7 -3 16 -2 19 1 4 3 -2 6 -13 5 -11 0 -14 -3 -6 -6z"/>
<path d="M3586 3360 c10 -16 19 -28 21 -26 6 6 -20 56 -29 56 -5 0 -1 -13 8
-30z"/>
<path d="M3860 3380 c0 -5 5 -10 11 -10 5 0 7 5 4 10 -3 6 -8 10 -11 10 -2 0
-4 -4 -4 -10z"/>
<path d="M4668 3383 c7 -3 16 -2 19 1 4 3 -2 6 -13 5 -11 0 -14 -3 -6 -6z"/>
<path d="M5010 3370 c0 -5 7 -10 15 -10 8 0 15 5 15 10 0 6 -7 10 -15 10 -8 0
-15 -4 -15 -10z"/>
<path d="M620 3362 c0 -12 19 -26 26 -19 2 2 -2 10 -11 17 -9 8 -15 8 -15 2z"/>
<path d="M1500 3365 c-10 -53 -10 -60 1 -42 6 10 8 25 6 35 -3 9 -6 13 -7 7z"/>
<path d="M2623 3351 c0 -11 5 -18 9 -15 4 3 5 11 1 19 -7 21 -12 19 -10 -4z"/>
<path d="M4438 3363 c7 -3 16 -2 19 1 4 3 -2 6 -13 5 -11 0 -14 -3 -6 -6z"/>
<path d="M757 3339 c4 -13 8 -18 11 -10 2 7 -1 18 -6 23 -8 8 -9 4 -5 -13z"/>
<path d="M4610 3336 c0 -2 7 -7 16 -10 8 -3 12 -2 9 4 -6 10 -25 14 -25 6z"/>
<path d="M4713 3333 c9 -2 23 -2 30 0 6 3 -1 5 -18 5 -16 0 -22 -2 -12 -5z"/>
<path d="M4850 3330 c-12 -7 -10 -9 7 -7 12 0 19 5 17 9 -6 10 -6 10 -24 -2z"/>
<path d="M4910 3330 c0 -5 5 -10 11 -10 5 0 7 5 4 10 -3 6 -8 10 -11 10 -2 0
-4 -4 -4 -10z"/>
<path d="M2607 3313 c-4 -3 -7 -11 -7 -17 0 -6 5 -5 12 2 6 6 9 14 7 17 -3 3
-9 2 -12 -2z"/>
<path d="M4954 3308 c-6 -10 51 -9 86 1 18 6 10 8 -28 8 -29 -1 -55 -4 -58 -9z"/>
<path d="M2657 3280 c-3 -11 -1 -20 4 -20 5 0 9 9 9 20 0 11 -2 20 -4 20 -2 0
-6 -9 -9 -20z"/>
<path d="M2836 3271 c-23 -43 2 -67 66 -62 25 2 32 38 14 66 -23 35 -61 33
-80 -4z m64 -12 c0 -5 -7 -9 -15 -9 -8 0 -15 7 -15 15 0 9 6 12 15 9 8 -4 15
-10 15 -15z"/>
<path d="M4760 3290 c0 -13 11 -13 30 0 12 8 11 10 -7 10 -13 0 -23 -4 -23
-10z"/>
<path d="M4850 3280 c0 -5 5 -10 10 -10 6 0 10 5 10 10 0 6 -4 10 -10 10 -5 0
-10 -4 -10 -10z"/>
<path d="M4822 3244 c10 -10 20 -16 22 -13 3 3 -5 11 -17 18 -21 13 -21 12 -5
-5z"/>
<path d="M340 3221 c-13 -14 -23 -27 -22 -28 1 -2 2 -9 1 -15 0 -7 -4 -4 -9 7
l-9 20 0 -20 c-1 -27 10 -40 33 -40 14 0 19 8 21 34 2 18 9 37 16 42 9 5 10
11 4 17 -6 5 -20 -2 -35 -17z"/>
<path d="M3595 3240 c3 -5 8 -10 11 -10 2 0 4 5 4 10 0 6 -5 10 -11 10 -5 0
-7 -4 -4 -10z"/>
<path d="M2588 3205 c-14 -32 5 -57 41 -53 49 6 33 78 -16 78 -7 0 -18 -11
-25 -25z m52 -9 c0 -17 -14 -29 -23 -20 -8 8 3 34 14 34 5 0 9 -6 9 -14z"/>
<path d="M3740 3223 c0 -6 8 -17 18 -24 16 -13 16 -13 2 6 -8 11 -16 22 -17
24 -2 2 -3 0 -3 -6z"/>
<path d="M4810 3227 c0 -2 15 -16 33 -33 l32 -29 -29 33 c-28 30 -36 37 -36
29z"/>
<path d="M4630 3216 c0 -2 8 -10 18 -17 15 -13 16 -12 3 4 -13 16 -21 21 -21
13z"/>
<path d="M2473 3168 c-15 -20 -25 -38 -20 -38 3 0 12 11 21 25 17 26 16 35 -1
13z"/>
<path d="M3190 3172 c0 -6 -3 -17 -6 -26 -5 -13 1 -16 26 -16 27 0 31 3 28 23
-3 22 -48 40 -48 19z"/>
<path d="M2516 3161 c-4 -5 -7 -21 -8 -35 -2 -23 -18 -39 -18 -18 0 14 -48 12
-59 -2 -7 -8 -16 -27 -20 -43 l-8 -28 51 0 c44 0 51 3 54 21 2 17 12 23 43 28
43 7 50 25 23 64 -15 22 -48 30 -58 13z m44 -26 c0 -8 -7 -15 -15 -15 -16 0
-20 12 -8 23 11 12 23 8 23 -8z m-90 -60 c0 -8 -7 -15 -15 -15 -16 0 -20 12
-8 23 11 12 23 8 23 -8z"/>
<path d="M3096 3137 c-20 -15 -12 -47 12 -47 22 0 52 29 45 46 -6 17 -34 18
-57 1z"/>
<path d="M3268 3105 c-11 -24 -10 -29 7 -41 24 -18 38 -5 33 32 -4 37 -25 42
-40 9z"/>
<path d="M2267 3102 c-10 -10 -17 -29 -17 -41 0 -20 4 -22 37 -19 32 3 38 7
38 27 0 13 -9 30 -21 37 -18 13 -23 12 -37 -4z"/>
<path d="M4709 3095 c5 -11 17 -29 26 -40 l16 -20 -10 20 c-5 11 -17 29 -26
40 l-16 20 10 -20z"/>
<path d="M2893 3072 c-6 -4 -13 -20 -15 -37 -2 -22 -9 -31 -28 -35 -20 -5 -25
-12 -26 -37 -1 -36 15 -47 49 -34 32 12 50 37 44 60 -3 14 1 21 16 23 25 4 42
30 34 52 -7 17 -52 22 -74 8z m67 -22 c0 -5 -5 -10 -11 -10 -5 0 -7 5 -4 10 3
6 8 10 11 10 2 0 4 -4 4 -10z m-50 -70 c0 -5 -5 -10 -11 -10 -5 0 -7 5 -4 10
3 6 8 10 11 10 2 0 4 -4 4 -10z"/>
<path d="M4996 3072 c-3 -5 1 -9 9 -9 8 0 12 4 9 9 -3 4 -7 8 -9 8 -2 0 -6 -4
-9 -8z"/>
<path d="M3519 3053 c-13 -16 -12 -17 4 -4 16 13 21 21 13 21 -2 0 -10 -8 -17
-17z"/>
<path d="M2335 3044 c-9 -9 -14 -23 -11 -31 3 -8 6 -17 6 -19 0 -9 59 -3 65 6
8 12 -20 60 -35 60 -4 0 -16 -7 -25 -16z m35 -18 c0 -3 -4 -8 -10 -11 -5 -3
-10 -1 -10 4 0 6 5 11 10 11 6 0 10 -2 10 -4z"/>
<path d="M3576 3013 c-6 -14 -5 -15 5 -6 7 7 10 15 7 18 -3 3 -9 -2 -12 -12z"/>
<path d="M1699 2993 c-13 -17 -13 -17 6 -3 11 8 22 16 24 17 2 2 0 3 -6 3 -6
0 -17 -8 -24 -17z"/>
<path d="M3024 2995 c-4 -9 -1 -20 6 -25 8 -5 9 -10 2 -14 -6 -4 -15 1 -20 10
-13 23 -49 9 -55 -21 -3 -21 0 -25 19 -25 13 0 24 -5 24 -11 0 -7 -9 -9 -21
-6 -15 4 -23 0 -26 -14 -3 -10 -10 -19 -15 -19 -5 0 -3 -7 6 -15 8 -8 18 -15
23 -15 12 0 33 -50 33 -78 0 -21 -2 -22 -15 -12 -8 7 -15 21 -15 31 0 12 -7
19 -20 19 -11 0 -20 5 -20 10 0 20 -48 11 -55 -11 -4 -11 -9 -18 -12 -15 -7 7
-27 -14 -36 -36 -3 -10 -11 -18 -18 -18 -6 0 -9 -7 -5 -15 3 -8 1 -15 -4 -15
-6 0 -10 -7 -10 -15 0 -8 6 -15 14 -15 10 0 12 -7 9 -21 -5 -19 -3 -21 20 -15
17 4 27 2 27 -4 0 -7 9 -5 22 4 35 25 128 18 128 -10 0 -22 -20 -26 -45 -10
-31 20 -35 20 -35 -1 0 -13 -2 -15 -8 -5 -9 14 -42 6 -42 -10 0 -5 -6 -8 -12
-5 -7 2 -23 0 -36 -4 -19 -7 -25 -4 -34 16 -8 17 -18 24 -34 23 -13 -1 -24 -6
-24 -10 0 -3 -9 -10 -20 -13 -11 -4 -18 -10 -15 -15 3 -5 1 -12 -5 -15 -6 -4
-8 -15 -5 -25 3 -10 0 -22 -6 -26 -8 -4 -9 -3 -5 4 4 7 3 12 -3 12 -6 0 -17
-15 -26 -34 -9 -19 -30 -44 -46 -57 -17 -13 -29 -31 -29 -45 0 -16 -6 -24 -17
-24 -15 0 -16 -2 -3 -10 13 -8 13 -10 -1 -10 -9 0 -19 -7 -23 -15 -4 -11 2
-15 22 -17 15 0 34 -2 42 -3 8 -1 21 3 28 8 8 6 12 5 12 -2 0 -7 4 -10 9 -6 5
3 12 1 15 -4 6 -9 30 -8 96 2 19 3 59 9 89 12 30 3 59 9 65 14 6 5 22 11 36
13 28 3 50 19 43 31 -8 13 14 7 27 -8 7 -8 18 -15 25 -15 8 0 15 -6 18 -12 3
-10 8 -10 21 1 14 12 19 12 25 2 6 -8 39 -14 96 -17 48 -2 93 -8 100 -14 8 -7
21 -7 38 -1 17 7 28 6 36 -2 7 -7 17 -12 24 -13 7 0 22 -2 34 -2 12 -1 29 -9
37 -18 9 -8 16 -12 16 -7 0 4 -38 48 -85 97 -133 139 -147 181 -115 330 13 58
13 60 -10 75 -13 9 -46 25 -74 37 -28 12 -50 27 -48 33 1 7 -2 10 -7 7 -5 -4
-12 -2 -16 3 -3 6 -12 8 -20 4 -8 -3 -15 0 -15 7 0 6 -10 11 -22 10 -35 -3
-48 -1 -48 8 0 5 10 8 23 8 16 -1 23 5 25 22 3 17 7 20 16 13 8 -7 12 -5 13 9
1 10 -5 24 -13 30 -11 10 -15 8 -21 -6 -6 -17 -8 -16 -13 5 -7 30 -28 39 -36
16z m264 -233 c2 -7 -2 -10 -12 -6 -9 3 -16 11 -16 16 0 13 23 5 28 -10z
m-411 -104 c-3 -8 -6 -5 -6 6 -1 11 2 17 5 13 3 -3 4 -12 1 -19z m217 -107
c-4 -17 -9 -30 -11 -27 -3 2 -2 19 2 36 9 41 17 33 9 -9z m63 -8 c-3 -10 -5
-4 -5 12 0 17 2 24 5 18 2 -7 2 -21 0 -30z m-416 -59 c-23 -38 -26 -48 -12
-40 5 3 11 -1 15 -9 8 -21 26 -19 26 3 1 16 1 16 14 -1 16 -21 62 -32 71 -16
5 7 14 3 26 -10 24 -26 24 -31 -1 -31 -11 0 -20 5 -20 11 0 7 -10 9 -25 7 -14
-3 -25 -2 -25 1 0 4 -15 7 -32 8 -67 2 -108 8 -108 16 0 5 8 11 19 14 10 2 28
22 40 44 12 21 25 39 28 39 3 0 -4 -16 -16 -36z m316 -24 c6 0 10 -8 8 -17 -1
-10 -9 -16 -16 -14 -8 1 -32 4 -53 5 -24 0 -41 7 -44 15 -3 8 0 11 7 7 6 -4
11 -2 11 4 0 8 13 10 38 6 20 -3 42 -5 49 -6z m160 -57 c-4 -4 -13 -1 -19 5
-9 9 -15 9 -26 0 -9 -8 -16 -8 -20 -1 -4 5 -13 12 -21 15 -16 5 -25 38 -10 38
5 0 9 -5 9 -11 0 -8 4 -8 13 -1 27 22 52 19 66 -10 8 -15 11 -31 8 -35z"/>
<path d="M2082 2950 c0 -14 2 -19 5 -12 2 6 2 18 0 25 -3 6 -5 1 -5 -13z"/>
<path d="M3541 2954 c0 -11 3 -14 6 -6 3 7 2 16 -1 19 -3 4 -6 -2 -5 -13z"/>
<path d="M1865 2949 c-4 -6 -5 -12 -2 -15 2 -3 7 2 10 11 7 17 1 20 -8 4z"/>
<path d="M2382 2940 c0 -14 2 -19 5 -12 2 6 2 18 0 25 -3 6 -5 1 -5 -13z"/>
<path d="M3775 2939 c-11 -16 -1 -19 13 -3 7 8 8 14 3 14 -5 0 -13 -5 -16 -11z"/>
<path d="M3815 2930 c3 -5 8 -10 11 -10 2 0 4 5 4 10 0 6 -5 10 -11 10 -5 0
-7 -4 -4 -10z"/>
<path d="M1840 2894 c-6 -14 -10 -35 -9 -47 1 -17 3 -15 9 8 4 17 11 38 15 48
4 9 4 17 1 17 -4 0 -11 -12 -16 -26z"/>
<path d="M1266 2874 c-5 -14 -4 -15 9 -4 17 14 19 20 6 20 -5 0 -12 -7 -15
-16z"/>
<path d="M2372 2860 c0 -14 2 -19 5 -12 2 6 2 18 0 25 -3 6 -5 1 -5 -13z"/>
<path d="M2172 2830 c0 -14 2 -19 5 -12 2 6 2 18 0 25 -3 6 -5 1 -5 -13z"/>
<path d="M1230 2809 c-7 -11 -10 -23 -7 -25 2 -2 9 7 15 21 14 30 7 33 -8 4z"/>
<path d="M4720 2796 c0 -8 4 -17 9 -20 5 -4 7 3 4 14 -6 23 -13 26 -13 6z"/>
<path d="M1832 2770 c0 -14 2 -19 5 -12 2 6 2 18 0 25 -3 6 -5 1 -5 -13z"/>
<path d="M2372 2750 c0 -14 2 -19 5 -12 2 6 2 18 0 25 -3 6 -5 1 -5 -13z"/>
<path d="M3312 2740 c0 -14 2 -19 5 -12 2 6 2 18 0 25 -3 6 -5 1 -5 -13z"/>
<path d="M1201 2714 c0 -11 3 -14 6 -6 3 7 2 16 -1 19 -3 4 -6 -2 -5 -13z"/>
<path d="M2021 2579 c-14 -42 -7 -49 9 -9 7 17 10 33 8 36 -3 3 -11 -9 -17
-27z"/>
<path d="M2371 2594 c0 -11 3 -14 6 -6 3 7 2 16 -1 19 -3 4 -6 -2 -5 -13z"/>
<path d="M4330 2597 c0 -4 7 -21 15 -36 8 -16 11 -31 8 -35 -4 -3 -1 -6 5 -6
7 0 12 3 12 8 -1 11 -39 78 -40 69z"/>
<path d="M921 2574 c0 -11 3 -14 6 -6 3 7 2 16 -1 19 -3 4 -6 -2 -5 -13z"/>
<path d="M5013 2485 c0 -22 2 -30 4 -17 2 12 2 30 0 40 -3 9 -5 -1 -4 -23z"/>
<path d="M2131 2494 c0 -11 3 -14 6 -6 3 7 2 16 -1 19 -3 4 -6 -2 -5 -13z"/>
<path d="M4446 2497 c3 -10 9 -15 12 -12 3 3 0 11 -7 18 -10 9 -11 8 -5 -6z"/>
<path d="M5041 2434 c0 -11 3 -14 6 -6 3 7 2 16 -1 19 -3 4 -6 -2 -5 -13z"/>
<path d="M4862 2405 c0 -16 2 -22 5 -12 2 9 2 23 0 30 -3 6 -5 -1 -5 -18z"/>
<path d="M3852 2400 c0 -14 2 -19 5 -12 2 6 2 18 0 25 -3 6 -5 1 -5 -13z"/>
<path d="M126 2363 c-6 -14 -5 -15 5 -6 7 7 10 15 7 18 -3 3 -9 -2 -12 -12z"/>
<path d="M55 2320 c-3 -5 -1 -10 4 -10 6 0 11 5 11 10 0 6 -2 10 -4 10 -3 0
-8 -4 -11 -10z"/>
<path d="M2970 2323 c-91 -13 -90 -13 -90 -38 0 -29 -8 -32 -26 -7 -12 15 -14
10 -15 -38 -1 -42 -3 -49 -9 -30 -4 14 -5 37 -2 53 3 16 0 27 -7 27 -6 0 -11
-5 -11 -11 0 -5 -4 -8 -9 -5 -5 3 -12 -1 -15 -9 -3 -8 -11 -14 -18 -13 -6 2
-15 -10 -19 -27 -5 -25 -7 -26 -8 -7 0 13 4 32 9 43 9 15 7 21 -5 25 -15 6
-51 -29 -67 -65 -5 -13 -7 -13 -7 2 -1 10 4 27 9 38 12 21 1 26 -18 7 -9 -9
-12 -8 -12 5 0 9 -4 17 -10 17 -5 0 -10 -7 -10 -16 0 -9 -6 -14 -12 -11 -7 2
-12 9 -11 15 4 16 -70 1 -86 -17 -7 -9 -5 -3 4 13 17 28 17 29 -1 21 -31 -12
-49 -11 -46 4 3 12 0 12 -12 1 -9 -7 -16 -26 -16 -42 0 -25 -3 -28 -20 -23
-16 5 -20 2 -20 -14 0 -14 -6 -21 -20 -21 -11 0 -20 -7 -20 -15 0 -8 -6 -12
-14 -9 -10 4 -16 -5 -21 -26 -4 -17 -13 -34 -21 -37 -9 -3 -12 -13 -9 -24 5
-14 -1 -22 -20 -31 -14 -6 -28 -22 -32 -35 -3 -14 -16 -29 -29 -33 -14 -6 -24
-18 -24 -29 0 -12 -12 -24 -30 -33 -38 -16 -42 -28 -19 -52 11 -11 19 -15 19
-9 0 6 16 11 35 11 22 0 33 -4 28 -11 -4 -6 2 -8 16 -4 15 3 24 0 28 -10 5
-12 7 -12 14 -2 6 10 12 9 29 -6 16 -14 23 -16 32 -7 9 9 9 12 0 12 -7 0 -12
5 -12 11 0 6 11 8 28 4 17 -3 40 1 61 11 25 12 35 14 41 5 4 -7 17 -13 28 -14
14 -1 22 -8 22 -19 0 -10 5 -18 10 -18 6 0 10 5 10 11 0 6 8 8 19 4 14 -4 19
-1 17 12 -1 12 5 17 17 15 10 -2 25 2 32 8 44 36 117 58 100 29 -4 -5 0 -9 7
-10 7 -1 22 -2 33 -3 11 0 30 2 43 6 14 5 21 4 17 -1 -7 -13 15 -26 24 -14 5
8 38 10 75 4 4 0 5 -8 2 -17 -5 -13 -1 -15 24 -12 17 3 33 1 36 -4 3 -4 15 -3
26 3 17 9 24 8 33 -5 13 -18 40 -21 50 -7 3 6 18 4 38 -4 17 -7 44 -11 60 -8
20 4 27 1 27 -11 0 -9 -8 -16 -20 -16 -11 0 -23 -7 -27 -16 -5 -14 -8 -13 -18
6 -11 21 -12 21 -30 4 -13 -13 -20 -15 -23 -6 -2 6 -10 12 -18 12 -11 0 -14
-9 -10 -37 3 -21 3 -29 0 -18 -4 11 -11 26 -16 33 -15 17 -39 15 -32 -3 9 -21
-23 -19 -35 3 -5 9 -11 21 -13 27 -1 5 -11 10 -20 10 -17 2 -22 -7 -19 -30 1
-5 -6 -1 -14 9 -8 11 -15 26 -15 33 0 7 -7 13 -15 13 -9 0 -12 -6 -9 -15 8
-19 -22 -20 -33 -1 -9 16 -59 26 -56 11 1 -5 4 -19 8 -30 3 -11 -3 -3 -15 18
-14 26 -27 37 -43 37 -20 -1 -21 -2 -4 -14 21 -16 22 -26 2 -26 -8 0 -15 5
-15 10 0 14 -33 12 -54 -3 -10 -7 -34 -12 -53 -10 -31 2 -34 0 -30 -17 6 -22
-8 -28 -16 -7 -3 8 -9 6 -19 -7 -17 -22 -54 -15 -45 8 7 17 -43 29 -60 14 -9
-7 -15 -6 -19 6 -8 22 -44 21 -44 -1 0 -15 -9 -18 -47 -18 -27 0 -53 4 -60 8
-6 4 -13 2 -15 -5 -3 -7 -13 -3 -27 11 -19 19 -25 21 -32 10 -6 -10 -9 -11 -9
-1 0 15 -37 16 -42 0 -2 -6 -12 -9 -21 -5 -11 4 -15 15 -12 34 2 15 2 22 -1
15 -3 -6 -10 -9 -15 -6 -15 9 -61 -5 -54 -16 3 -6 -1 -10 -9 -10 -10 0 -16 -9
-16 -21 0 -16 -5 -20 -20 -16 -13 3 -20 0 -20 -9 0 -8 7 -14 15 -14 8 0 15 -9
15 -20 0 -13 5 -18 15 -14 8 4 15 1 15 -5 0 -6 5 -11 11 -11 6 0 8 7 5 16 -5
14 -4 15 8 5 8 -7 19 -10 25 -7 5 3 12 0 15 -6 5 -10 7 -10 12 0 8 18 37 15
31 -3 -4 -8 -2 -17 3 -20 6 -4 10 -2 10 2 0 5 17 10 37 11 21 2 41 8 45 15 6
9 10 8 18 -3 8 -13 10 -12 10 3 0 9 5 17 10 17 6 0 10 -5 10 -11 0 -8 5 -8 15
1 12 10 16 9 21 -4 4 -10 14 -14 28 -11 26 6 51 -9 41 -25 -4 -7 -19 -10 -36
-6 -22 4 -27 2 -22 -9 3 -10 -2 -15 -17 -15 -15 0 -20 5 -17 14 8 21 -2 25
-33 14 -19 -6 -27 -15 -23 -24 3 -8 0 -14 -6 -14 -6 0 -11 5 -11 10 0 6 -5 10
-11 10 -7 0 -4 -11 6 -27 18 -28 18 -28 -1 -11 -11 10 -30 19 -43 21 -12 2
-26 9 -31 17 -4 7 -13 9 -19 6 -6 -4 -11 -2 -11 3 0 19 -20 12 -20 -6 -1 -17
-1 -17 -13 -1 -10 12 -24 16 -51 13 -29 -2 -36 0 -32 11 4 9 -2 14 -17 14 -12
0 -32 7 -43 15 -20 14 -34 11 -34 -7 0 -4 9 -8 20 -8 12 0 33 -11 48 -25 15
-14 32 -25 39 -25 7 0 10 -6 7 -13 -2 -7 9 -18 28 -26 29 -11 31 -13 14 -20
-14 -5 -16 -10 -8 -15 7 -4 9 -12 6 -18 -4 -6 -2 -8 4 -5 14 9 43 -3 36 -14
-3 -5 4 -9 15 -9 11 0 23 4 26 10 4 6 13 5 26 -3 17 -10 22 -9 38 13 16 19 22
22 34 12 11 -10 18 -8 32 8 10 11 23 16 29 12 6 -4 20 -7 31 -7 14 0 19 -6 17
-17 -2 -10 1 -18 6 -18 15 0 23 -63 27 -195 l3 -120 -8 120 c-7 117 -12 146
-33 173 -8 11 -12 11 -19 0 -7 -10 -11 -9 -22 5 -11 15 -15 15 -19 3 -3 -8 -4
-30 -1 -48 3 -18 0 -46 -5 -63 -9 -26 -10 -24 -5 16 7 52 -11 103 -27 78 -6
-11 -11 -11 -21 -1 -14 14 -32 16 -23 2 6 -10 -9 -13 -60 -12 -16 0 -33 -4
-36 -10 -10 -16 -49 10 -49 33 0 11 -8 23 -17 26 -26 10 -45 31 -38 43 3 5 2
10 -4 10 -28 0 -62 -112 -72 -235 l-7 -90 2 110 c3 117 17 169 59 213 18 20
19 24 7 32 -8 5 -11 10 -6 10 5 0 3 7 -4 15 -7 9 -19 14 -26 11 -8 -3 -21 2
-30 11 -15 15 -17 15 -26 0 -5 -9 -18 -17 -28 -17 -24 0 -35 -17 -21 -34 9
-10 8 -15 -4 -20 -8 -3 -15 -1 -15 5 0 6 -4 8 -10 4 -5 -3 -7 -12 -3 -20 3 -8
0 -15 -7 -15 -8 0 -11 -9 -8 -25 4 -19 1 -25 -11 -25 -22 0 -41 -19 -41 -42 0
-11 -5 -15 -14 -12 -15 6 -32 -29 -21 -45 4 -8 -26 -32 -45 -35 -2 -1 -5 -6
-5 -12 0 -6 -8 -18 -18 -28 -10 -10 -16 -25 -12 -34 3 -8 -5 -24 -20 -38 -14
-12 -22 -29 -20 -37 4 -8 -4 -18 -20 -25 -27 -13 -30 -19 -15 -42 7 -12 12
-12 29 4 11 10 24 15 29 12 5 -3 17 3 27 14 22 24 28 24 71 4 25 -12 38 -13
47 -5 8 6 43 10 85 8 58 -2 72 0 75 13 3 8 5 3 6 -12 1 -33 0 -33 46 -11 29
14 40 15 55 5 11 -6 26 -9 35 -6 9 4 25 -2 38 -14 27 -25 88 -45 111 -36 9 3
21 15 27 25 5 11 17 19 25 19 8 0 13 4 10 8 -2 4 0 14 5 22 7 12 11 13 18 2 7
-12 12 -12 29 -1 26 16 36 8 27 -21 -5 -15 -12 -19 -26 -15 -14 5 -19 2 -19
-13 0 -29 48 -46 86 -31 16 6 63 12 104 13 65 1 75 3 72 18 -4 23 45 55 61 39
6 -6 19 -11 28 -11 10 0 27 -12 38 -27 20 -24 24 -25 58 -15 23 7 42 8 54 2
24 -13 79 -13 79 0 0 6 11 16 25 22 20 9 28 8 43 -5 20 -19 62 -12 62 9 0 22
29 16 62 -11 32 -27 57 -26 89 1 20 18 44 18 74 -2 18 -12 28 -13 44 -5 32 17
61 13 93 -14 28 -24 31 -24 60 -9 17 9 42 14 56 11 14 -3 38 0 53 5 18 6 34 6
47 -1 15 -8 21 -7 26 4 3 8 17 15 31 15 21 0 25 5 25 28 0 15 -7 54 -15 86 -9
33 -13 61 -11 63 11 11 27 -43 33 -111 3 -42 10 -73 14 -70 4 2 5 12 2 21 -5
13 -1 15 30 9 33 -6 37 -5 37 14 0 11 -4 20 -10 20 -5 0 -10 12 -10 26 0 14 4
23 10 19 6 -3 10 0 10 8 0 8 -9 17 -20 20 -21 5 -28 37 -9 37 8 0 8 4 0 14 -9
10 -9 16 -1 21 8 5 8 11 -1 21 -9 11 -15 11 -25 3 -7 -6 -17 -8 -23 -5 -5 3
-11 0 -14 -6 -3 -10 -7 -10 -20 1 -16 12 -21 9 -18 -11 1 -11 -13 -10 -25 1
-13 13 -58 25 -51 14 3 -5 -3 -10 -14 -10 -10 -1 -19 4 -19 10 0 7 -4 6 -10
-3 -8 -12 -12 -13 -19 -1 -6 10 -13 11 -29 2 -18 -9 -23 -8 -32 9 -6 10 -17
17 -24 14 -8 -3 -17 -1 -20 5 -4 6 -20 8 -36 4 -19 -3 -30 -1 -30 6 0 15 -30
14 -30 -1 0 -7 -5 -5 -11 5 -7 12 -17 16 -30 12 -13 -4 -19 -2 -19 9 0 20 36
40 46 25 4 -8 9 -7 15 2 8 12 12 11 22 -3 10 -12 27 -16 63 -15 37 1 48 -2 46
-12 -2 -8 3 -11 12 -8 9 4 22 0 29 -8 10 -9 18 -10 25 -3 6 6 12 6 16 -1 10
-15 46 -14 46 2 1 8 4 7 13 -3 7 -8 27 -15 45 -16 34 0 42 10 16 20 -9 4 -14
13 -10 21 3 9 -1 18 -9 21 -9 4 -15 19 -15 39 0 18 -6 35 -12 38 -10 4 -10 7
0 18 17 18 15 49 -3 49 -9 0 -14 8 -12 23 1 16 -3 21 -15 19 -10 -2 -18 2 -18
8 0 6 -6 10 -12 9 -28 -3 -37 2 -40 24 -2 14 -11 23 -25 25 -26 4 -31 27 -8
36 11 4 19 -3 25 -19 6 -15 17 -25 29 -25 11 0 21 -5 23 -12 2 -6 9 -9 15 -5
12 7 5 57 -8 57 -5 0 -3 12 3 26 11 23 9 28 -12 46 -14 11 -19 17 -12 13 18
-9 26 20 12 45 -9 16 -8 25 1 36 10 13 10 17 -2 25 -12 8 -11 11 4 23 9 7 17
21 17 30 0 13 -6 15 -27 10 -16 -3 -34 -6 -40 -6 -7 -1 -13 -6 -13 -12 0 -6
-4 -4 -9 4 -6 8 -7 19 -4 25 4 5 -3 2 -14 -8 -20 -17 -21 -18 -25 -1 -3 16 -4
16 -22 -1 -17 -18 -19 -18 -28 -1 -9 16 -11 16 -35 1 -13 -9 -27 -14 -31 -11
-3 3 0 6 7 6 7 0 11 5 9 12 -5 13 -57 18 -64 6 -9 -14 -24 -9 -24 8 0 14 -2
14 -22 0 -28 -20 -42 -20 -35 -1 7 18 -8 29 -25 18 -7 -4 -24 -6 -37 -4 -16 2
-21 -1 -16 -10 5 -8 4 -10 -3 -5 -7 4 -12 16 -12 26 0 32 -31 41 -51 16 -17
-19 -18 -19 -19 -3 0 10 -4 16 -10 12 -5 -3 -7 -12 -3 -20 3 -8 0 -15 -6 -15
-6 0 -11 5 -11 10 0 6 -4 10 -10 10 -5 0 -7 -7 -4 -15 4 -8 1 -15 -5 -15 -6 0
-11 5 -11 10 0 21 -17 9 -33 -22 -10 -22 -16 -27 -16 -15 -1 25 -21 11 -21
-16 0 -19 -1 -20 -13 -3 -11 15 -15 15 -24 4 -6 -7 -13 -22 -16 -33 -4 -17 -5
-17 -6 4 -1 19 -4 21 -15 12 -11 -9 -15 -8 -20 6 -8 20 -5 29 7 25 4 -1 10 5
13 13 4 8 17 15 30 15 17 0 24 6 24 20 0 11 5 20 10 20 6 0 10 -4 10 -10 0 -5
7 -10 16 -10 9 0 12 5 8 12 -5 8 -2 9 9 5 11 -4 20 1 27 13 6 11 17 20 25 20
8 0 15 7 15 16 0 13 2 14 21 0 16 -10 28 -12 46 -5 33 12 33 12 33 -11 0 -18
2 -19 20 -8 17 11 22 10 30 -2 6 -10 26 -15 62 -15 39 0 56 -5 67 -18 8 -12
19 -16 30 -11 34 14 112 13 118 -2 3 -8 11 -14 19 -14 8 0 11 6 8 15 -4 9 0
15 10 15 9 0 16 -4 16 -10 0 -5 8 -10 17 -10 9 0 13 3 10 7 -4 3 -1 13 5 21
10 11 9 17 -3 26 -13 9 -14 15 -5 29 9 14 7 21 -6 31 -12 9 -14 16 -7 23 8 8
5 14 -9 22 -26 14 -32 6 -33 -48 -1 -56 -6 -44 -12 26 -2 34 0 50 6 46 6 -3 7
-1 3 5 -10 17 -41 15 -57 -4 -12 -14 -14 -14 -21 5 -9 25 -33 27 -54 6 -17
-16 -39 -21 -30 -6 3 5 -5 16 -18 25 -23 15 -24 14 -21 -10 2 -18 -1 -22 -8
-15 -6 6 -20 11 -31 11 -16 0 -17 -3 -8 -12 7 -7 12 -21 11 -32 0 -14 -5 -9
-16 17 -11 27 -20 36 -31 32 -8 -3 -21 0 -28 6 -18 15 -34 3 -35 -29 -1 -23
-3 -22 -8 8 -6 37 -22 43 -65 25 -14 -6 -17 -5 -12 3 4 7 4 11 -1 11 -4 -1
-19 -3 -33 -6z m7 -60 c-3 -10 -5 -2 -5 17 0 19 2 27 5 18 2 -10 2 -26 0 -35z
m360 5 c-3 -7 -5 -2 -5 12 0 14 2 19 5 13 2 -7 2 -19 0 -25z m-80 -15 c-3 -10
-5 -4 -5 12 0 17 2 24 5 18 2 -7 2 -21 0 -30z m-350 -20 c-3 -10 -5 -4 -5 12
0 17 2 24 5 18 2 -7 2 -21 0 -30z m-320 -25 c-3 -8 -6 -5 -6 6 -1 11 2 17 5
13 3 -3 4 -12 1 -19z m598 -58 c3 -5 2 -10 -4 -10 -5 0 -13 5 -16 10 -3 6 -2
10 4 10 5 0 13 -4 16 -10z m-763 -105 c25 0 30 -11 13 -25 -8 -7 -15 -9 -15
-5 0 5 -9 0 -21 -11 -17 -16 -22 -16 -29 -4 -8 12 -13 13 -30 2 -15 -9 -26
-10 -40 -2 -26 14 -25 18 6 47 17 15 24 19 21 9 -4 -9 -2 -16 3 -16 6 0 10 7
10 16 0 9 6 14 13 11 6 -2 11 -10 10 -16 -2 -6 4 -11 12 -11 9 0 15 10 16 28
l1 27 7 -25 c4 -14 14 -25 23 -25z m303 17 c3 -7 3 -18 -1 -23 -3 -5 2 -9 10
-9 8 0 18 5 22 11 4 7 10 7 16 1 13 -13 2 -32 -18 -32 -8 0 -14 -7 -14 -15 0
-13 -4 -14 -20 -5 -11 6 -20 17 -20 25 0 17 -16 20 -25 4 -4 -6 -14 -8 -23 -4
-8 3 -18 1 -22 -5 -4 -6 -30 -13 -58 -14 -39 -2 -56 1 -68 15 -20 23 -11 39
19 31 19 -5 20 -3 10 10 -7 8 -10 17 -7 21 3 3 48 5 99 4 71 0 96 -4 100 -15z
m314 -62 c80 -77 89 -91 18 -32 -40 33 -104 102 -95 102 1 0 36 -32 77 -70z
m112 33 c13 -16 12 -17 -3 -4 -17 13 -22 21 -14 21 2 0 10 -8 17 -17z m-166
-55 c27 -35 38 -54 25 -43 -29 23 -43 40 -65 78 -26 44 -11 31 40 -35z m295
37 c11 -13 10 -14 -4 -9 -9 3 -16 10 -16 15 0 13 6 11 20 -6z m141 -27 c15
-28 5 -21 -21 15 -15 20 -17 27 -6 18 9 -8 22 -23 27 -33z m87 -3 c-3 -3 -9 2
-12 12 -6 14 -5 15 5 6 7 -7 10 -15 7 -18z m-1056 -37 c-8 -8 -9 -4 -5 13 4
13 8 18 11 10 2 -7 -1 -18 -6 -23z m838 -57 c0 -4 11 -6 25 -3 16 3 25 0 25
-8 0 -9 3 -10 13 -1 15 12 37 -3 37 -26 0 -16 -12 -17 -28 -1 -8 8 -15 8 -27
-2 -9 -7 -27 -10 -45 -6 -17 3 -30 1 -30 -4 0 -15 -17 -12 -34 6 -18 17 -11
38 9 30 8 -3 19 2 25 10 14 16 30 19 30 5z m155 -55 c13 5 16 3 13 -7 -3 -8
-11 -13 -17 -11 -6 1 -11 -2 -11 -8 0 -16 -17 -12 -24 6 -8 20 4 41 14 25 3
-7 15 -9 25 -5z m-1347 -41 c-3 -3 -9 2 -12 12 -6 14 -5 15 5 6 7 -7 10 -15 7
-18z m482 -62 c0 -18 15 -16 36 4 15 15 18 15 28 2 17 -24 54 -30 61 -10 6 14
8 14 20 -3 9 -12 21 -17 35 -13 13 3 20 0 20 -9 0 -8 5 -14 10 -14 6 0 10 -5
10 -11 0 -6 -6 -9 -12 -6 -7 2 -24 0 -38 -5 -19 -7 -27 -5 -37 8 -10 14 -13
14 -13 3 0 -8 -3 -10 -8 -4 -4 6 -16 17 -26 25 -15 11 -18 11 -12 1 7 -10 2
-12 -23 -6 -17 4 -31 3 -31 -2 0 -15 -42 -13 -58 4 -14 14 -17 14 -29 -2 -11
-17 -13 -17 -19 -2 -9 24 -27 21 -19 -3 9 -29 -17 -25 -31 4 -12 26 -3 58 11
37 5 -9 10 -9 21 0 8 6 14 8 14 5 0 -4 8 -3 17 3 26 14 73 10 73 -6z m290 -13
c0 -5 -2 -10 -4 -10 -3 0 -8 5 -11 10 -3 6 -1 10 4 10 6 0 11 -4 11 -10z m34
-24 c-3 -9 6 -15 25 -19 35 -7 43 -37 11 -37 -11 0 -20 4 -20 10 0 5 -6 7 -14
4 -7 -3 -16 2 -20 11 -4 13 -10 14 -26 5 -25 -13 -45 -4 -28 13 17 16 61 36
70 30 4 -2 5 -10 2 -17z m158 -12 c3 -18 58 -30 58 -13 0 5 5 9 11 9 5 0 8 -4
5 -9 -3 -5 1 -11 9 -15 24 -9 18 -28 -7 -21 -17 5 -9 -7 27 -40 28 -26 37 -38
20 -27 -16 11 -44 34 -61 51 -31 30 -48 32 -37 5 7 -19 -6 -18 -29 3 -13 11
-18 12 -18 3 0 -10 -3 -10 -15 0 -23 19 -19 39 8 33 18 -5 20 -3 10 8 -17 17
-16 29 1 29 8 0 16 -7 18 -16z m294 -19 c2 -16 -2 -25 -12 -25 -8 0 -14 6 -14
13 0 6 -5 4 -11 -6 -5 -9 -7 -23 -4 -30 4 -6 0 -4 -8 6 -9 10 -21 15 -31 11
-11 -4 -16 -2 -14 6 2 6 -7 16 -19 20 -18 8 -21 6 -16 -8 5 -13 3 -14 -7 -5
-7 6 -19 9 -26 6 -10 -4 -12 0 -8 11 5 13 17 16 62 12 38 -3 62 0 76 10 23 16
28 13 32 -21z m-989 -7 c-3 -7 -5 -2 -5 12 0 14 2 19 5 13 2 -7 2 -19 0 -25z
m312 -18 c11 -24 11 -24 -3 -6 -9 11 -16 24 -16 30 0 12 5 7 19 -24z m-188 -8
c-15 -28 -14 -32 9 -32 11 0 20 5 20 10 0 6 7 10 15 10 8 0 15 -4 15 -10 0
-13 37 -13 45 0 4 6 11 8 16 4 5 -3 7 -10 4 -15 -4 -5 2 -10 12 -10 53 -3 78
-9 81 -19 2 -5 8 -8 13 -4 5 3 9 1 9 -5 0 -6 20 -8 49 -5 37 3 50 1 55 -11 3
-8 12 -12 21 -9 8 3 15 1 15 -5 0 -15 27 -14 32 1 6 16 39 2 34 -14 -1 -7 -1
-10 1 -7 5 9 43 -1 43 -11 0 -5 9 -6 20 -3 11 3 28 -1 37 -8 10 -8 18 -10 20
-4 11 31 21 39 37 26 13 -11 18 -10 31 3 21 20 31 20 39 1 4 -12 10 -13 24 -6
10 5 22 7 28 3 23 -17 55 -164 38 -175 -5 -3 -9 16 -10 43 0 26 -6 61 -13 77
-11 27 -16 30 -56 29 -33 -1 -41 -4 -33 -13 7 -9 7 -13 0 -13 -5 0 -13 7 -16
16 -3 8 -10 13 -15 9 -13 -8 -10 -46 6 -70 27 -41 12 -36 -19 6 -18 25 -33 38
-36 31 -3 -10 -7 -10 -20 0 -13 11 -15 10 -9 -4 8 -23 -2 -23 -18 -1 -8 10
-25 16 -48 15 -27 -1 -39 4 -47 18 -12 23 -35 27 -26 5 3 -8 1 -15 -5 -15 -5
0 -12 7 -16 16 -3 9 -12 13 -21 9 -8 -3 -19 0 -23 7 -8 13 -79 19 -79 7 0 -4
7 -24 16 -45 18 -43 15 -158 -5 -204 -11 -24 -11 -24 -6 5 18 98 17 151 -3
200 -11 28 -23 59 -27 70 -4 13 -8 16 -13 8 -6 -9 -16 -7 -37 7 -32 21 -50 26
-41 11 7 -11 -17 -21 -50 -21 -15 0 -24 6 -24 15 0 8 -7 15 -16 15 -9 0 -12
-5 -8 -12 5 -7 2 -9 -9 -5 -8 3 -32 9 -51 13 -31 5 -36 4 -36 -12 0 -15 -2
-16 -9 -5 -5 7 -13 11 -19 7 -5 -3 -12 5 -14 18 -6 28 23 51 41 33 8 -8 11 -7
11 6 0 10 5 14 14 11 9 -3 17 3 21 16 4 12 9 19 12 17 2 -3 0 -14 -6 -25z
m944 15 c17 2 37 4 45 3 8 0 23 0 32 -1 25 0 30 -13 12 -35 -11 -14 -17 -15
-20 -6 -3 6 -12 12 -20 12 -9 0 -13 -4 -10 -9 3 -5 -1 -11 -9 -15 -8 -3 -17
-1 -21 5 -3 5 -14 7 -25 4 -13 -4 -19 -2 -19 9 0 9 -3 15 -7 15 -20 -3 -24 2
-13 16 7 9 16 12 19 7 3 -6 20 -8 36 -5z m-585 -47 c0 -16 -2 -30 -4 -30 -2 0
-6 14 -8 30 -3 17 -1 30 4 30 4 0 8 -13 8 -30z m141 -24 c36 -41 38 -46 13
-27 -16 12 -39 36 -49 54 -10 18 -16 30 -13 27 2 -3 24 -27 49 -54z m565 29
c-3 -9 0 -15 8 -15 8 0 16 -7 20 -15 6 -16 -9 -21 -19 -5 -3 5 -12 7 -20 3
-15 -5 -22 27 -8 40 12 13 25 7 19 -8z m-205 -22 c13 -16 12 -17 -3 -4 -17 13
-22 21 -14 21 2 0 10 -8 17 -17z m134 -29 c9 -15 12 -23 6 -20 -11 7 -35 46
-28 46 3 0 12 -12 22 -26z m-951 -239 c5 -59 5 -59 -5 -15 -5 25 -14 65 -20
90 -20 86 -19 105 1 45 10 -33 22 -87 24 -120z m334 75 l0 -25 -8 25 c-4 14
-8 36 -8 50 l0 25 8 -25 c4 -14 8 -36 8 -50z m-597 -11 c-5 -13 -10 -19 -10
-12 -1 15 10 45 15 40 3 -2 0 -15 -5 -28z m-101 1 c0 -5 -4 -10 -10 -10 -5 0
-10 5 -10 10 0 6 5 10 10 10 6 0 10 -4 10 -10z m-134 -13 c0 -1 10 -16 22 -34
27 -38 27 -39 2 -46 -23 -6 -44 22 -34 46 4 11 -2 16 -17 19 -12 2 -24 9 -27
17 -4 11 2 12 24 7 16 -4 29 -8 30 -9z m1366 -25 c7 -27 -18 -60 -34 -44 -9 9
-9 12 1 12 8 0 10 7 6 20 -7 22 2 43 14 35 5 -2 11 -13 13 -23z m25 -19 c-3
-10 -5 -2 -5 17 0 19 2 27 5 18 2 -10 2 -26 0 -35z m-1626 17 c19 -11 27 -50
10 -50 -25 0 -41 14 -41 36 0 27 3 28 31 14z m929 -16 c11 -12 10 -18 -4 -32
-14 -14 -18 -14 -25 -4 -7 12 -12 12 -29 1 -16 -10 -24 -11 -33 -2 -14 14 -3
34 15 27 7 -3 19 2 26 11 16 19 34 19 50 -1z m-527 -7 c3 -7 3 -25 0 -40 -3
-16 -1 -27 6 -27 6 0 11 -5 11 -11 0 -6 -10 -9 -22 -7 -19 2 -23 9 -21 37 1
21 -2 29 -7 22 -10 -17 -22 2 -14 23 7 19 40 21 47 3z m827 -1 c0 -17 -46 -56
-66 -56 -8 0 -14 7 -14 15 0 8 7 15 15 15 8 0 19 9 25 20 12 23 40 27 40 6z
m-1326 -2 c26 -10 18 -24 -14 -24 -20 0 -30 5 -30 15 0 16 17 19 44 9z m1423
-41 c-3 -10 -5 -4 -5 12 0 17 2 24 5 18 2 -7 2 -21 0 -30z m450 21 c4 -14 -10
-31 -34 -38 -28 -9 -39 10 -18 34 17 18 47 21 52 4z m-1082 -44 c9 -15 -15
-42 -32 -36 -8 3 -23 0 -33 -6 -15 -9 -22 -10 -31 -1 -15 15 -1 36 18 29 8 -3
24 1 36 9 25 18 34 19 42 5z"/>
<path d="M4850 2300 c0 -8 5 -22 10 -30 9 -13 10 -13 10 0 0 8 -5 22 -10 30
-9 13 -10 13 -10 0z"/>
<path d="M3621 2284 c0 -11 3 -14 6 -6 3 7 2 16 -1 19 -3 4 -6 -2 -5 -13z"/>
<path d="M3841 2284 c0 -11 3 -14 6 -6 3 7 2 16 -1 19 -3 4 -6 -2 -5 -13z"/>
<path d="M3861 2284 c0 -11 3 -14 6 -6 3 7 2 16 -1 19 -3 4 -6 -2 -5 -13z"/>
<path d="M1231 2244 c0 -11 3 -14 6 -6 3 7 2 16 -1 19 -3 4 -6 -2 -5 -13z"/>
<path d="M2245 2230 c-9 -16 -13 -30 -11 -30 3 0 12 14 21 30 9 17 13 30 11
30 -3 0 -12 -13 -21 -30z"/>
<path d="M4112 2235 c0 -16 2 -22 5 -12 2 9 2 23 0 30 -3 6 -5 -1 -5 -18z"/>
<path d="M1116 2224 c-4 -14 -5 -28 -3 -31 3 -2 8 8 11 23 4 14 5 28 3 31 -3
2 -8 -8 -11 -23z"/>
<path d="M10 2235 c0 -5 5 -17 10 -25 5 -8 10 -10 10 -5 0 6 -5 17 -10 25 -5
8 -10 11 -10 5z"/>
<path d="M1906 2225 c-9 -26 -7 -32 5 -12 6 10 9 21 6 23 -2 3 -7 -2 -11 -11z"/>
<path d="M3923 2165 c0 -22 2 -30 4 -17 2 12 2 30 0 40 -3 9 -5 -1 -4 -23z"/>
<path d="M4111 2184 c0 -11 3 -14 6 -6 3 7 2 16 -1 19 -3 4 -6 -2 -5 -13z"/>
<path d="M4877 2179 c4 -13 8 -18 11 -10 2 7 -1 18 -6 23 -8 8 -9 4 -5 -13z"/>
<path d="M12 2165 c0 -16 2 -22 5 -12 2 9 2 23 0 30 -3 6 -5 -1 -5 -18z"/>
<path d="M2199 2157 c-36 -46 -42 -58 -27 -52 11 5 64 85 56 85 -2 0 -15 -15
-29 -33z"/>
<path d="M1576 2153 c-6 -14 -5 -15 5 -6 7 7 10 15 7 18 -3 3 -9 -2 -12 -12z"/>
<path d="M1871 2143 c-10 -26 -10 -27 4 -9 8 11 15 23 15 28 0 15 -7 8 -19
-19z"/>
<path d="M3661 2134 c0 -11 3 -14 6 -6 3 7 2 16 -1 19 -3 4 -6 -2 -5 -13z"/>
<path d="M786 2114 c-4 -14 -5 -28 -3 -31 3 -2 8 8 11 23 4 14 5 28 3 31 -3 2
-8 -8 -11 -23z"/>
<path d="M1060 2090 c-6 -11 -8 -20 -6 -20 3 0 10 9 16 20 6 11 8 20 6 20 -3
0 -10 -9 -16 -20z"/>
<path d="M2099 2037 c-31 -28 -74 -67 -95 -85 -21 -18 -29 -28 -17 -23 21 11
183 160 173 160 -3 1 -30 -23 -61 -52z"/>
<path d="M4051 2034 c0 -11 3 -14 6 -6 3 7 2 16 -1 19 -3 4 -6 -2 -5 -13z"/>
<path d="M4032 1953 c-7 -25 -11 -47 -9 -50 2 -2 10 17 17 42 7 25 11 48 8 50
-2 2 -10 -16 -16 -42z"/>
<path d="M1310 1970 c-6 -11 -8 -20 -6 -20 3 0 10 9 16 20 6 11 8 20 6 20 -3
0 -10 -9 -16 -20z"/>
<path d="M1889 1953 l-24 -28 28 24 c25 23 32 31 24 31 -2 0 -14 -12 -28 -27z"/>
<path d="M4091 1944 c0 -11 3 -14 6 -6 3 7 2 16 -1 19 -3 4 -6 -2 -5 -13z"/>
<path d="M1829 1883 l-24 -28 28 24 c25 23 32 31 24 31 -2 0 -14 -12 -28 -27z"/>
<path d="M3668 1883 c7 -3 16 -2 19 1 4 3 -2 6 -13 5 -11 0 -14 -3 -6 -6z"/>
<path d="M4188 1833 c7 -3 16 -2 19 1 4 3 -2 6 -13 5 -11 0 -14 -3 -6 -6z"/>
<path d="M455 1790 c-4 -17 -5 -34 -2 -36 2 -3 7 10 11 27 8 42 0 50 -9 9z"/>
<path d="M1804 1773 c-15 -20 -23 -33 -16 -29 13 8 56 66 49 66 -3 0 -17 -17
-33 -37z"/>
<path d="M1962 1773 c2 -9 8 -18 15 -20 7 -3 9 3 6 16 -6 25 -26 28 -21 4z"/>
<path d="M666 1733 c-6 -14 -5 -15 5 -6 7 7 10 15 7 18 -3 3 -9 -2 -12 -12z"/>
<path d="M441 1733 c-1 -6 -4 -20 -7 -30 -5 -17 -5 -17 6 0 6 10 9 23 6 30 -3
9 -5 9 -5 0z"/>
<path d="M906 1715 c-3 -9 -6 -22 -5 -28 0 -7 5 -1 10 12 5 13 8 26 5 28 -2 2
-6 -3 -10 -12z"/>
<path d="M1709 1693 c-13 -16 -12 -17 4 -4 9 7 17 15 17 17 0 8 -8 3 -21 -13z"/>
<path d="M4410 1654 c-24 -48 -24 -50 -1 -21 13 15 21 32 19 38 -2 6 -10 -2
-18 -17z"/>
<path d="M4218 1653 c7 -3 16 -2 19 1 4 3 -2 6 -13 5 -11 0 -14 -3 -6 -6z"/>
<path d="M892 1630 c0 -14 2 -19 5 -12 2 6 2 18 0 25 -3 6 -5 1 -5 -13z"/>
<path d="M631 1534 c0 -11 3 -14 6 -6 3 7 2 16 -1 19 -3 4 -6 -2 -5 -13z"/>
<path d="M4820 1515 c-6 -7 -32 -17 -57 -21 -28 -4 -40 -10 -32 -14 7 -5 19
-5 28 -2 14 5 14 3 3 -10 -16 -21 0 -32 31 -22 19 6 20 5 8 -10 -12 -14 -12
-16 3 -10 23 9 15 28 -14 32 -23 4 -22 5 16 38 21 18 36 33 33 34 -4 0 -12 -7
-19 -15z"/>
<path d="M4850 1515 c-11 -13 -10 -14 4 -9 9 3 16 10 16 15 0 13 -6 11 -20 -6z"/>
<path d="M1599 1493 c-13 -16 -12 -17 4 -4 9 7 17 15 17 17 0 8 -8 3 -21 -13z"/>
<path d="M3680 1474 c0 -14 3 -14 15 -4 8 7 15 14 15 16 0 2 -7 4 -15 4 -8 0
-15 -7 -15 -16z"/>
<path d="M633 1445 c0 -22 2 -30 4 -17 2 12 2 30 0 40 -3 9 -5 -1 -4 -23z"/>
<path d="M4720 1459 c0 -5 5 -7 10 -4 6 3 10 8 10 11 0 2 -4 4 -10 4 -5 0 -10
-5 -10 -11z"/>
<path d="M5056 1435 c-9 -26 -7 -32 5 -12 6 10 9 21 6 23 -2 3 -7 -2 -11 -11z"/>
<path d="M3998 1433 c6 -2 18 -2 25 0 6 3 1 5 -13 5 -14 0 -19 -2 -12 -5z"/>
<path d="M1535 1370 c3 -5 8 -10 11 -10 2 0 4 5 4 10 0 6 -5 10 -11 10 -5 0
-7 -4 -4 -10z"/>
<path d="M1331 1354 c0 -11 3 -14 6 -6 3 7 2 16 -1 19 -3 4 -6 -2 -5 -13z"/>
<path d="M4199 1353 c-13 -16 -12 -17 4 -4 9 7 17 15 17 17 0 8 -8 3 -21 -13z"/>
<path d="M1512 1335 c-6 -14 -8 -25 -3 -25 8 0 23 41 17 47 -1 2 -8 -8 -14
-22z"/>
<path d="M4565 1340 c4 -6 11 -8 16 -5 14 9 11 15 -7 15 -8 0 -12 -5 -9 -10z"/>
<path d="M1321 1314 c0 -11 3 -14 6 -6 3 7 2 16 -1 19 -3 4 -6 -2 -5 -13z"/>
<path d="M337 1285 c-24 -50 -20 -58 4 -12 11 22 19 41 17 43 -3 2 -12 -12
-21 -31z"/>
<path d="M4539 1303 c-13 -16 -12 -17 4 -4 9 7 17 15 17 17 0 8 -8 3 -21 -13z"/>
<path d="M4390 1219 c0 -5 5 -7 10 -4 6 3 10 8 10 11 0 2 -4 4 -10 4 -5 0 -10
-5 -10 -11z"/>
<path d="M4565 1210 c11 -5 29 -8 40 -8 16 0 15 2 -5 8 -34 11 -60 11 -35 0z"/>
<path d="M4707 1213 c-12 -12 -7 -22 8 -17 8 4 15 10 15 15 0 11 -14 12 -23 2z"/>
<path d="M4469 1190 c-9 -5 -22 -23 -29 -40 -18 -44 0 -62 59 -58 43 3 46 5
49 34 2 25 -3 37 -24 53 -30 24 -33 24 -55 11z m37 -47 c-10 -10 -19 5 -10 18
6 11 8 11 12 0 2 -7 1 -15 -2 -18z m-26 7 c0 -5 -4 -10 -10 -10 -5 0 -10 5
-10 10 0 6 5 10 10 10 6 0 10 -4 10 -10z"/>
<path d="M4910 1189 c0 -5 5 -7 10 -4 6 3 10 8 10 11 0 2 -4 4 -10 4 -5 0 -10
-5 -10 -11z"/>
<path d="M4988 1193 c7 -3 16 -2 19 1 4 3 -2 6 -13 5 -11 0 -14 -3 -6 -6z"/>
<path d="M2950 905 c0 -11 -8 -16 -22 -15 -13 1 -44 2 -70 1 -48 -1 -48 -1
-48 -36 0 -23 5 -35 14 -35 7 0 19 -7 26 -15 8 -10 30 -15 61 -15 58 0 74 20
64 81 -7 39 -25 64 -25 34z"/>
<path d="M2318 903 c-73 -4 -83 -12 -99 -78 -7 -30 -7 -30 -8 -3 -1 15 4 39 9
53 l10 27 -127 -6 c-119 -5 -128 -7 -140 -28 -7 -13 -12 -35 -13 -50 0 -27 1
-28 63 -30 34 -1 71 -1 82 0 53 5 120 0 123 -8 2 -6 11 -6 24 1 13 7 43 9 77
5 66 -7 80 0 91 45 5 19 12 44 15 57 6 19 4 22 -16 20 -13 -1 -54 -3 -91 -5z"/>
<path d="M2437 875 c-9 -20 -17 -50 -17 -67 0 -27 3 -30 23 -24 12 3 50 6 85
6 58 0 62 2 62 23 0 12 7 35 15 50 16 31 10 37 -40 34 -16 -1 -48 2 -70 6 -40
8 -41 7 -58 -28z"/>
<path d="M1477 882 c-9 -10 -18 -36 -20 -57 l-2 -39 82 -1 c82 0 83 0 84 25 2
24 2 24 6 2 4 -21 9 -23 55 -21 40 2 53 -1 64 -16 20 -27 31 -10 36 58 l5 57
-69 0 c-48 0 -68 -4 -68 -12 0 -9 -2 -10 -8 -2 -4 7 -39 15 -77 19 -62 6 -73
4 -88 -13z"/>
<path d="M3445 890 c-22 -4 -67 -6 -99 -4 -58 4 -59 4 -43 -14 9 -10 17 -32
17 -49 0 -28 2 -30 31 -27 18 2 37 8 43 13 14 11 98 11 112 -1 7 -5 36 -11 65
-15 51 -6 52 -6 46 18 -4 13 -7 30 -7 36 0 34 -89 57 -165 43z"/>
<path d="M3626 890 c-34 -4 -37 -7 -24 -18 9 -7 19 -29 23 -50 4 -20 9 -40 11
-44 2 -4 28 4 57 16 28 13 72 26 97 28 25 3 53 9 63 13 12 5 17 2 17 -10 0
-14 6 -16 43 -9 23 4 72 7 110 6 71 -1 80 6 56 49 -8 17 -20 20 -67 19 -31 -1
-85 0 -119 2 -35 2 -59 -1 -56 -6 4 -5 0 -5 -8 0 -15 9 -142 12 -203 4z"/>
<path d="M4152 892 c-56 -3 -63 -5 -57 -20 4 -9 10 -25 12 -34 3 -10 14 -18
24 -18 11 0 19 -7 19 -15 0 -14 3 -14 23 0 28 18 172 21 161 4 -8 -14 53 -17
119 -6 57 9 67 14 67 32 0 37 -14 45 -86 49 -38 1 -73 4 -79 5 -24 7 -46 1
-39 -11 6 -10 4 -10 -7 -2 -18 14 -75 20 -157 16z"/>
<path d="M1802 865 c-7 -14 -12 -37 -12 -50 0 -24 3 -25 58 -25 32 0 63 -5 70
-12 16 -16 18 -11 25 55 l6 57 -68 0 c-63 0 -69 -2 -79 -25z"/>
<path d="M2622 863 c-6 -16 -14 -43 -17 -61 -7 -32 -6 -34 16 -27 13 4 37 14
53 22 17 9 41 12 61 9 50 -10 65 0 65 45 l0 39 -84 0 c-82 0 -84 -1 -94 -27z"/>
<path d="M2988 851 l4 -36 71 -3 c39 -2 74 -8 78 -14 5 -7 22 -8 50 -4 24 4
61 7 82 8 31 1 37 5 37 22 0 12 -7 31 -15 43 -15 21 -22 22 -163 21 l-147 -1
3 -36z"/>
</g>
</svg>
