<?xml version="1.0"?>
<svg width="595.3" height="595.3" xmlns="http://www.w3.org/2000/svg" xmlns:svg="http://www.w3.org/2000/svg" enable-background="new 0 0 595.3 595.3" xml:space="preserve">
 <metadata id="metadata78"/>

 <style id="style2" type="text/css">.st0{fill:#901E1E;}
	.st1{fill:#901E1E;}</style>
 <g class="layer">
  <title>Layer 1</title>
  <g id="Calque_2"/>
  <g id="g13" transform="matrix(1.89289, 0, 0, 1.89289, -264.726, -165.928)">
   <path d="m299.2,319.9c0,0 0,0 0,0c-0.1,-0.1 -0.2,-0.2 -0.2,-0.3c-0.1,-0.1 -0.1,-0.1 -0.2,-0.2c0,0 0,0 0,0c-0.1,0 -0.1,-0.1 -0.2,-0.1c-0.1,-0.1 -0.2,-0.1 -0.3,-0.2c-0.1,0 -0.2,-0.1 -0.3,-0.1c-0.1,0 -0.2,-0.1 -0.2,-0.1c-0.1,0 -0.2,0 -0.3,-0.1c-0.1,0 -0.2,0 -0.3,0c-0.1,0 -0.2,0 -0.3,0c-0.1,0 -0.2,0 -0.3,0c-0.1,0 -0.2,0 -0.3,0c-0.1,0 -0.2,0 -0.3,0.1c-0.1,0 -0.2,0.1 -0.2,0.1c-0.1,0 -0.2,0.1 -0.3,0.1c-0.1,0 -0.2,0.1 -0.3,0.2c-0.1,0 -0.1,0.1 -0.2,0.1c0,0 0,0 0,0c-0.1,0.1 -0.1,0.1 -0.2,0.2c-0.1,0.1 -0.2,0.2 -0.2,0.2c0,0 0,0 0,0l-8.1,10.1c-1,1.3 -0.8,3.1 0.5,4.1c0.5,0.4 1.2,0.6 1.8,0.6c0.9,0 1.7,-0.4 2.3,-1.1l0.1,-0.1c3,-3.7 8.6,-3.7 11.5,0l0.1,0.1c0.6,0.7 1.4,1.1 2.3,1.1c0.6,0 1.3,-0.2 1.8,-0.6c1.3,-1 1.5,-2.9 0.5,-4.1l-8.2,-10z" fill="#901E1E" id="path5"/>
   <path d="m285.7,149.1c-4.1,0 -7.5,3.2 -7.7,7.3l-15.3,5.6c-0.8,0.3 -1.4,1 -1.4,1.9l0,9.7l-12.3,0c-0.9,-3.3 -3.8,-5.7 -7.4,-5.7c-4.2,0 -7.7,3.4 -7.7,7.7c0,4.2 3.4,7.7 7.7,7.7c3.6,0 6.5,-2.4 7.4,-5.7l14.3,0c1.1,0 2,-0.9 2,-2l0,-10.3l13.5,-5c1.3,2.5 3.9,4.2 6.8,4.2c4.2,0 7.7,-3.4 7.7,-7.7c0.1,-4.2 -3.4,-7.7 -7.6,-7.7z" fill="#901E1E" id="path7"/>
   <path class="st0" d="m269.5,292.3c-2.5,-0.9 -4.9,-1.8 -7.2,-2.8c-1.7,-0.8 -3.4,-1.6 -5,-2.4c3.8,3.8 13,10.6 22.9,10.8c0.6,-0.7 1.1,-1.4 1.5,-2.3c-1.5,-0.3 -3,-0.6 -4.5,-1c-2.7,-0.7 -5.2,-1.4 -7.7,-2.3z" fill="#901E1E" id="path9"/>
   <path d="m395,222.5c0,-4.7 -0.3,-9.4 -1,-13.9c0,-0.3 -0.1,-0.6 -0.1,-0.9c-6.1,-39.7 -36.2,-72.3 -75.8,-81c-1,-4.5 -5,-7.9 -9.8,-7.9c-5.6,0 -10.1,4.5 -10.1,10.1c0,4.8 3.4,8.8 7.9,9.8l0,36.9c0,0.6 0.3,1.2 0.8,1.6c0.3,0.2 0.7,0.3 1.1,0.3c0.2,0 0.5,0 0.7,-0.1l14.8,-5.6c1,1.5 2.5,2.5 4.3,3l0,17.4c-7.5,9.2 -16.8,17.5 -26.7,24.9l-11.3,-26.2c2.1,-1.4 3.5,-3.7 3.5,-6.4c0,-4.2 -3.4,-7.7 -7.7,-7.7c-4.2,0 -7.7,3.4 -7.7,7.7c0,4.2 3.4,7.7 7.7,7.7c0.1,0 0.3,0 0.4,0l11.8,27.3c-6.9,5 -14,9.5 -21,13.6l-33.6,-10.1c-0.4,-0.1 -0.8,-0.1 -1.2,0.1l-10,3.9c-1.4,-1.9 -3.6,-3.1 -6.2,-3.1c-4.2,0 -7.7,3.4 -7.7,7.7c0,4.2 3.4,7.7 7.7,7.7c4.2,0 7.7,-3.4 7.7,-7.7c0,-0.3 -0.1,-0.6 -0.1,-0.9l9.4,-3.7l29.3,8.8c-25,14 -47.4,22.1 -51.1,23.4l-1.8,0.6c-1.6,-1.2 -3.6,-1.9 -5.8,-1.9c-0.1,0 -0.2,0 -0.3,0c-4.7,-11.1 -7.1,-23.2 -7.1,-35.3c0,-6 0.6,-11.9 1.7,-17.6l43.9,0c0.9,3.3 3.8,5.7 7.4,5.7c4.2,0 7.7,-3.4 7.7,-7.7c0,-4.2 -3.4,-7.7 -7.7,-7.7c-3.6,0 -6.5,2.4 -7.4,5.7l-43,0c8.1,-32.9 34.1,-59.2 67.7,-67c1.8,2.9 5,4.9 8.6,4.9c5.6,0 10.1,-4.5 10.1,-10.1c0,-5.6 -4.5,-10.1 -10.1,-10.1c-4.9,0 -8.9,3.5 -9.9,8c-44.1,10 -76.4,49.7 -76.4,95.7c0,13.1 2.6,26.2 7.7,38.2c-1.9,1.8 -3,4.4 -3,7.2c0,4.5 2.9,8.2 6.9,9.6l0,39.4c0,0.7 0.2,1.4 0.6,2l2.2,1.5l29.9,21.1l0,25.2c0,2.1 1.7,3.8 3.8,3.8l100,0c2.1,0 3.8,-1.7 3.8,-3.8l0,-25.2l30,-21.1l2.2,-1.6c0.4,-0.6 0.6,-1.3 0.6,-2l0,-39.7c3.7,-1.5 6.3,-5.1 6.3,-9.3c0,-2.6 -1,-5 -2.6,-6.8c5.3,-11.9 8,-25.1 8,-38.4zm-113.6,-96.9c0.9,-1 2.2,-1.6 3.6,-1.6c2.7,0 4.9,2.2 4.9,4.9c0,2.7 -2.2,4.9 -4.9,4.9c-1,0 -1.9,-0.3 -2.7,-0.8c-1.3,-0.9 -2.2,-2.4 -2.2,-4c0,-1.4 0.5,-2.6 1.3,-3.4zm22,3.2c0,-2.7 2.2,-4.9 4.9,-4.9c1.4,0 2.6,0.6 3.5,1.5c0.8,0.9 1.3,2 1.3,3.3c0,1.6 -0.8,3.1 -2.1,4c-0.8,0.6 -1.7,0.9 -2.8,0.9c-2.6,0.1 -4.8,-2.1 -4.8,-4.8zm18.8,38.5c0,0.3 0.1,0.5 0.1,0.7l-12.2,4.6l0,-34c3,-0.5 5.5,-2.3 6.9,-4.8c10.7,2.4 20.7,6.7 29.6,12.6c-0.1,14.8 -5.8,28.4 -14.8,40.7l0,-12.4c3.3,-0.9 5.7,-3.8 5.7,-7.4c0,-4.2 -3.4,-7.7 -7.7,-7.7c-4.2,0.1 -7.6,3.5 -7.6,7.7zm-108.7,105.4c-1.2,0 -2.3,-0.5 -3.2,-1.2c-1,-0.9 -1.7,-2.2 -1.7,-3.6c0,-0.6 0.1,-1.2 0.3,-1.7c0.7,-1.8 2.5,-3.1 4.5,-3.1c0.9,0 1.7,0.3 2.4,0.7c1.4,0.8 2.4,2.4 2.4,4.2c0,0.9 -0.3,1.7 -0.7,2.4c-0.7,1.4 -2.2,2.3 -4,2.3zm170,-1.9c-0.9,1.1 -2.3,1.9 -3.8,1.9c-1.4,0 -2.6,-0.6 -3.5,-1.5c-0.8,-0.9 -1.3,-2 -1.3,-3.3c0,-2.1 1.3,-3.9 3.2,-4.5c0.5,-0.2 1.1,-0.3 1.7,-0.3c2.3,0 4.3,1.7 4.8,3.9c0.1,0.3 0.1,0.6 0.1,1c-0.2,1 -0.6,2 -1.2,2.8zm-3,-13c-0.3,0 -0.6,0 -0.9,0c-5.6,0 -10.1,4.5 -10.1,10.1c0,4.3 2.7,8 6.6,9.4l0,36.8l-31.5,22.2c-1,0.7 -1.6,1.9 -1.6,3.1l0,21.2c0,1.2 -1,2.2 -2.2,2.2l-11.7,0c-1.2,0 -2.2,-1 -2.2,-2.2l0,-7.6c0,-2 -1.4,-3.8 -3.4,-4c-2.3,-0.2 -4.2,1.6 -4.2,3.8l0,7.9c0,1.2 -1,2.2 -2.2,2.2l-14.3,0c-1.2,0 -2.2,-1 -2.2,-2.2l0,-11.7c0,-2 -1.4,-3.8 -3.4,-4c-2.3,-0.2 -4.2,1.6 -4.2,3.8l0,12c0,1.2 -1,2.2 -2.2,2.2l-14.3,0c-1.2,0 -2.2,-1 -2.2,-2.2l0,-7.8c0,-2 -1.4,-3.8 -3.4,-4c-2.3,-0.2 -4.2,1.6 -4.2,3.8l0,7.9c0,1.2 -1,2.2 -2.2,2.2l-11.7,0c-1.2,0 -2.2,-1 -2.2,-2.2l0,-21.2c0,-1.2 -0.6,-2.4 -1.6,-3.1l-31.4,-22.2l0,-37.2c3.5,-1.6 5.9,-5.1 5.9,-9.2c0,-0.6 -0.1,-1.2 -0.2,-1.8c4,-1.4 34.5,-12.3 64.5,-31c40.6,-25.3 63.1,-54 65.7,-83.5c17.5,14.1 29.6,34.5 33.1,57.4c-0.5,50.1 -87.8,81 -88.7,81.3c-0.2,0.1 -0.7,0.2 -1.1,0.4c-1.1,-0.2 -2.2,-0.4 -3.4,-0.6c-0.8,-0.2 -1.7,-0.3 -2.5,-0.5c-1.3,-0.2 -2.6,-0.5 -3.9,-0.8c-0.2,-0.1 -0.5,-0.1 -0.7,-0.1c-0.5,-0.1 -1,-0.2 -1.5,-0.3c-0.6,-0.1 -1.2,-0.3 -1.8,-0.4c-1.4,-0.3 -2.8,-0.6 -4.1,-1c-2.5,-0.6 -4.9,-1.3 -7.3,-1.9c-2.3,-0.7 -4.7,-1.3 -6.9,-2c-0.1,0 -0.1,0 -0.2,0c-1.7,-0.5 -3.3,-1 -4.9,-1.6c-0.5,-0.2 -1.1,-0.4 -1.6,-0.5c-0.8,-0.3 -1.5,-0.5 -2.2,-0.7c-1.3,-0.4 -2.5,-0.8 -3.6,-1.3c0,0 -0.1,0 -0.1,0c-1.8,-0.6 -3.4,-1.2 -4.8,-1.8c-1.5,-0.6 -2.8,-1.1 -3.8,-1.5c-1,-0.5 -1.9,-0.8 -2.4,-1.1c-0.6,-0.3 -0.9,-0.4 -0.9,-0.4c0,0 0.2,0.3 0.6,0.7c0.4,0.5 1,1.2 1.9,2c0.8,0.8 1.9,1.8 3.2,2.8c1.3,1 2.8,2.1 4.4,3.2c0,0 0,0 0.1,0c-0.6,2 -1,4.2 -1,6.4c0,11.5 9.4,20.9 20.9,20.9c8.9,0 16.5,-5.6 19.5,-13.5c1,0.1 2.1,0.2 3.1,0.3c1.8,0.1 3.5,0.1 5.1,0.1c0.1,0 0.2,0.1 0.3,0.1l16.9,17.2c4.3,4.3 11,5 16,1.7l26.4,-14.8c2.3,-1.5 3.8,-4.1 3.8,-6.9l0,-30.4c10.2,-8.1 19.4,-17.7 25.4,-28.6c-1.1,7.9 -3.2,15.4 -6.3,22.5zm-98.8,37.8c-0.4,0.8 -1,1.6 -1.5,2.3l0,0c-2.4,2.8 -6,4.6 -10,4.6c-4,0 -7.6,-1.8 -10,-4.6c-2,-2.3 -3.1,-5.3 -3.1,-8.5c0,-0.8 0.1,-1.5 0.2,-2.3c0,0 0,0 0,0c1.6,0.8 3.3,1.6 5,2.4c2.3,1 4.7,2 7.2,2.8c2.5,0.9 5.1,1.6 7.7,2.3c1.5,0.4 3,0.7 4.5,1z" fill="#901E1E" id="path11"/>
  </g>
 </g>
</svg>
